<svg version="1.1" viewBox="0.0 0.0 600.0 371.0" fill="none" stroke="none" stroke-linecap="square" stroke-miterlimit="10" width="600" height="371" xmlns:xlink="http://www.w3.org/1999/xlink" xmlns="http://www.w3.org/2000/svg"><path fill="#ffffff" d="M0 0L600.0 0L600.0 371.0L0 371.0L0 0Z" fill-rule="nonzero"/><path stroke="#333333" stroke-width="1.0" stroke-linecap="butt" d="M170.5 345.5L581.5 345.5" fill-rule="nonzero"/><path stroke="#cccccc" stroke-width="1.0" stroke-linecap="butt" d="M170.5 281.5L581.5 281.5" fill-rule="nonzero"/><path stroke="#cccccc" stroke-width="1.0" stroke-linecap="butt" d="M170.5 217.5L581.5 217.5" fill-rule="nonzero"/><path stroke="#cccccc" stroke-width="1.0" stroke-linecap="butt" d="M170.5 153.5L581.5 153.5" fill-rule="nonzero"/><path stroke="#cccccc" stroke-width="1.0" stroke-linecap="butt" d="M170.5 89.5L581.5 89.5" fill-rule="nonzero"/><path stroke="#cccccc" stroke-width="1.0" stroke-linecap="butt" d="M170.5 25.5L581.5 25.5" fill-rule="nonzero"/><path stroke="#e6e6e6" stroke-width="1.0" stroke-linecap="butt" d="M170.5 332.5L581.5 332.5" fill-rule="nonzero"/><path stroke="#e6e6e6" stroke-width="1.0" stroke-linecap="butt" d="M170.5 319.5L581.5 319.5" fill-rule="nonzero"/><path stroke="#e6e6e6" stroke-width="1.0" stroke-linecap="butt" d="M170.5 307.5L581.5 307.5" fill-rule="nonzero"/><path stroke="#e6e6e6" stroke-width="1.0" stroke-linecap="butt" d="M170.5 294.5L581.5 294.5" fill-rule="nonzero"/><path stroke="#e6e6e6" stroke-width="1.0" stroke-linecap="butt" d="M170.5 268.5L581.5 268.5" fill-rule="nonzero"/><path stroke="#e6e6e6" stroke-width="1.0" stroke-linecap="butt" d="M170.5 255.5L581.5 255.5" fill-rule="nonzero"/><path stroke="#e6e6e6" stroke-width="1.0" stroke-linecap="butt" d="M170.5 243.5L581.5 243.5" fill-rule="nonzero"/><path stroke="#e6e6e6" stroke-width="1.0" stroke-linecap="butt" d="M170.5 230.5L581.5 230.5" fill-rule="nonzero"/><path stroke="#e6e6e6" stroke-width="1.0" stroke-linecap="butt" d="M170.5 204.5L581.5 204.5" fill-rule="nonzero"/><path stroke="#e6e6e6" stroke-width="1.0" stroke-linecap="butt" d="M170.5 191.5L581.5 191.5" fill-rule="nonzero"/><path stroke="#e6e6e6" stroke-width="1.0" stroke-linecap="butt" d="M170.5 179.5L581.5 179.5" fill-rule="nonzero"/><path stroke="#e6e6e6" stroke-width="1.0" stroke-linecap="butt" d="M170.5 166.5L581.5 166.5" fill-rule="nonzero"/><path stroke="#e6e6e6" stroke-width="1.0" stroke-linecap="butt" d="M170.5 140.5L581.5 140.5" fill-rule="nonzero"/><path stroke="#e6e6e6" stroke-width="1.0" stroke-linecap="butt" d="M170.5 127.5L581.5 127.5" fill-rule="nonzero"/><path stroke="#e6e6e6" stroke-width="1.0" stroke-linecap="butt" d="M170.5 115.5L581.5 115.5" fill-rule="nonzero"/><path stroke="#e6e6e6" stroke-width="1.0" stroke-linecap="butt" d="M170.5 102.5L581.5 102.5" fill-rule="nonzero"/><path stroke="#e6e6e6" stroke-width="1.0" stroke-linecap="butt" d="M170.5 76.5L581.5 76.5" fill-rule="nonzero"/><path stroke="#e6e6e6" stroke-width="1.0" stroke-linecap="butt" d="M170.5 63.5L581.5 63.5" fill-rule="nonzero"/><path stroke="#e6e6e6" stroke-width="1.0" stroke-linecap="butt" d="M170.5 51.5L581.5 51.5" fill-rule="nonzero"/><path stroke="#e6e6e6" stroke-width="1.0" stroke-linecap="butt" d="M170.5 38.5L581.5 38.5" fill-rule="nonzero"/><clipPath id="id_0"><path d="M170.81 25.55L581.45 25.55L581.45 345.45L170.81 345.45L170.81 25.55Z" clip-rule="nonzero"/></clipPath><path stroke="#000000" stroke-width="0.0" stroke-linecap="butt" stroke-opacity="0.0" clip-path="url(#id_0)" d="M295.0 345.0L280.0 345.0L280.0 283.0C280.0 281.89542 280.89542 281.0 282.0 281.0L293.0 281.0C294.10458 281.0 295.0 281.89542 295.0 283.0Z" fill-rule="nonzero"/><path fill="#4285f4" clip-path="url(#id_0)" d="M295.0 345.0L280.0 345.0L280.0 283.0C280.0 281.89542 280.89542 281.0 282.0 281.0L293.0 281.0C294.10458 281.0 295.0 281.89542 295.0 283.0Z" fill-rule="nonzero"/><path stroke="#000000" stroke-width="0.0" stroke-linecap="butt" stroke-opacity="0.0" clip-path="url(#id_0)" d="M311.0 345.0L296.0 345.0L296.0 283.0C296.0 281.89542 296.89542 281.0 298.0 281.0L309.0 281.0C310.10458 281.0 311.0 281.89542 311.0 283.0Z" fill-rule="nonzero"/><path fill="#ea4335" clip-path="url(#id_0)" d="M311.0 345.0L296.0 345.0L296.0 283.0C296.0 281.89542 296.89542 281.0 298.0 281.0L309.0 281.0C310.10458 281.0 311.0 281.89542 311.0 283.0Z" fill-rule="nonzero"/><path stroke="#000000" stroke-width="0.0" stroke-linecap="butt" stroke-opacity="0.0" clip-path="url(#id_0)" d="M327.0 345.0L312.0 345.0L312.0 251.0C312.0 249.89543 312.89542 249.0 314.0 249.0L325.0 249.0C326.10458 249.0 327.0 249.89543 327.0 251.0Z" fill-rule="nonzero"/><path fill="#fbbc04" clip-path="url(#id_0)" d="M327.0 345.0L312.0 345.0L312.0 251.0C312.0 249.89543 312.89542 249.0 314.0 249.0L325.0 249.0C326.10458 249.0 327.0 249.89543 327.0 251.0Z" fill-rule="nonzero"/><path stroke="#000000" stroke-width="0.0" stroke-linecap="butt" stroke-opacity="0.0" clip-path="url(#id_0)" d="M343.0 345.0L328.0 345.0L328.0 219.0C328.0 217.89543 328.89542 217.0 330.0 217.0L341.0 217.0C342.10458 217.0 343.0 217.89543 343.0 219.0Z" fill-rule="nonzero"/><path fill="#34a853" clip-path="url(#id_0)" d="M343.0 345.0L328.0 345.0L328.0 219.0C328.0 217.89543 328.89542 217.0 330.0 217.0L341.0 217.0C342.10458 217.0 343.0 217.89543 343.0 219.0Z" fill-rule="nonzero"/><path stroke="#000000" stroke-width="0.0" stroke-linecap="butt" stroke-opacity="0.0" clip-path="url(#id_0)" d="M359.0 345.0L344.0 345.0L344.0 219.0C344.0 217.89543 344.89542 217.0 346.0 217.0L357.0 217.0C358.10458 217.0 359.0 217.89543 359.0 219.0Z" fill-rule="nonzero"/><path fill="#ff6d01" clip-path="url(#id_0)" d="M359.0 345.0L344.0 345.0L344.0 219.0C344.0 217.89543 344.89542 217.0 346.0 217.0L357.0 217.0C358.10458 217.0 359.0 217.89543 359.0 219.0Z" fill-rule="nonzero"/><path stroke="#000000" stroke-width="0.0" stroke-linecap="butt" stroke-opacity="0.0" clip-path="url(#id_0)" d="M375.0 345.0L360.0 345.0L360.0 219.0C360.0 217.89543 360.89542 217.0 362.0 217.0L373.0 217.0C374.10458 217.0 375.0 217.89543 375.0 219.0Z" fill-rule="nonzero"/><path fill="#46bdc6" clip-path="url(#id_0)" d="M375.0 345.0L360.0 345.0L360.0 219.0C360.0 217.89543 360.89542 217.0 362.0 217.0L373.0 217.0C374.10458 217.0 375.0 217.89543 375.0 219.0Z" fill-rule="nonzero"/><path stroke="#000000" stroke-width="0.0" stroke-linecap="butt" stroke-opacity="0.0" clip-path="url(#id_0)" d="M391.0 345.0L376.0 345.0L376.0 219.0C376.0 217.89543 376.89542 217.0 378.0 217.0L389.0 217.0C390.10458 217.0 391.0 217.89543 391.0 219.0Z" fill-rule="nonzero"/><path fill="#7baaf7" clip-path="url(#id_0)" d="M391.0 345.0L376.0 345.0L376.0 219.0C376.0 217.89543 376.89542 217.0 378.0 217.0L389.0 217.0C390.10458 217.0 391.0 217.89543 391.0 219.0Z" fill-rule="nonzero"/><path stroke="#000000" stroke-width="0.0" stroke-linecap="butt" stroke-opacity="0.0" clip-path="url(#id_0)" d="M407.0 345.0L392.0 345.0L392.0 188.0C392.0 186.89543 392.89542 186.0 394.0 186.0L405.0 186.0C406.10458 186.0 407.0 186.89543 407.0 188.0Z" fill-rule="nonzero"/><path fill="#f07b72" clip-path="url(#id_0)" d="M407.0 345.0L392.0 345.0L392.0 188.0C392.0 186.89543 392.89542 186.0 394.0 186.0L405.0 186.0C406.10458 186.0 407.0 186.89543 407.0 188.0Z" fill-rule="nonzero"/><path stroke="#000000" stroke-width="0.0" stroke-linecap="butt" stroke-opacity="0.0" clip-path="url(#id_0)" d="M423.0 345.0L408.0 345.0L408.0 156.0C408.0 154.89543 408.89542 154.0 410.0 154.0L421.0 154.0C422.10458 154.0 423.0 154.89543 423.0 156.0Z" fill-rule="nonzero"/><path fill="#fcd04f" clip-path="url(#id_0)" d="M423.0 345.0L408.0 345.0L408.0 156.0C408.0 154.89543 408.89542 154.0 410.0 154.0L421.0 154.0C422.10458 154.0 423.0 154.89543 423.0 156.0Z" fill-rule="nonzero"/><path stroke="#000000" stroke-width="0.0" stroke-linecap="butt" stroke-opacity="0.0" clip-path="url(#id_0)" d="M439.0 345.0L424.0 345.0L424.0 124.0C424.0 122.89543 424.89542 122.0 426.0 122.0L437.0 122.0C438.10458 122.0 439.0 122.89543 439.0 124.0Z" fill-rule="nonzero"/><path fill="#71c287" clip-path="url(#id_0)" d="M439.0 345.0L424.0 345.0L424.0 124.0C424.0 122.89543 424.89542 122.0 426.0 122.0L437.0 122.0C438.10458 122.0 439.0 122.89543 439.0 124.0Z" fill-rule="nonzero"/><path stroke="#000000" stroke-width="0.0" stroke-linecap="butt" stroke-opacity="0.0" clip-path="url(#id_0)" d="M455.0 345.0L440.0 345.0L440.0 124.0C440.0 122.89543 440.89542 122.0 442.0 122.0L453.0 122.0C454.10458 122.0 455.0 122.89543 455.0 124.0Z" fill-rule="nonzero"/><path fill="#ff994d" clip-path="url(#id_0)" d="M455.0 345.0L440.0 345.0L440.0 124.0C440.0 122.89543 440.89542 122.0 442.0 122.0L453.0 122.0C454.10458 122.0 455.0 122.89543 455.0 124.0Z" fill-rule="nonzero"/><path stroke="#000000" stroke-width="0.0" stroke-linecap="butt" stroke-opacity="0.0" clip-path="url(#id_0)" d="M471.0 345.0L456.0 345.0L456.0 60.0C456.0 58.89543 456.89542 58.0 458.0 58.0L469.0 58.0C470.10458 58.0 471.0 58.89543 471.0 60.0Z" fill-rule="nonzero"/><path fill="#7ed1d7" clip-path="url(#id_0)" d="M471.0 345.0L456.0 345.0L456.0 60.0C456.0 58.89543 456.89542 58.0 458.0 58.0L469.0 58.0C470.10458 58.0 471.0 58.89543 471.0 60.0Z" fill-rule="nonzero"/><path fill="#ffffff" d="M158.31 345.21564Q158.31 343.6844 158.6225 342.7625Q158.935 341.825 159.54437 341.325Q160.16937 340.825 161.10687 340.825Q161.79437 340.825 162.31 341.10626Q162.84125 341.3875 163.185 341.91876Q163.52875 342.4344 163.71625 343.1844Q163.90375 343.9344 163.90375 345.21564Q163.90375 346.73126 163.59125 347.65314Q163.29437 348.575 162.66937 349.09064Q162.06 349.59064 161.10687 349.59064Q159.8725 349.59064 159.15375 348.7Q158.31 347.6375 158.31 345.21564ZM159.38812 345.21564Q159.38812 347.325 159.88812 348.02814Q160.38812 348.73126 161.10687 348.73126Q161.84125 348.73126 162.32562 348.02814Q162.82562 347.325 162.82562 345.21564Q162.82562 343.09064 162.32562 342.40314Q161.84125 341.7 161.09125 341.7Q160.3725 341.7 159.935 342.3094Q159.38812 343.09064 159.38812 345.21564Z" fill-rule="nonzero"/><path fill="#ffffff" d="M163.85687 284.45438L163.85687 285.47L158.16937 285.47Q158.16937 285.095 158.29437 284.73563Q158.51312 284.1575 158.98187 283.595Q159.46625 283.0325 160.3725 282.29813Q161.77875 281.14188 162.26312 280.47Q162.76312 279.79813 162.76312 279.20438Q162.76312 278.57938 162.31 278.1575Q161.85687 277.72 161.13812 277.72Q160.3725 277.72 159.91937 278.17313Q159.46625 278.62625 159.45062 279.43875L158.3725 279.32938Q158.48187 278.11063 159.20062 277.48563Q159.935 276.845 161.16937 276.845Q162.40375 276.845 163.1225 277.5325Q163.84125 278.22 163.84125 279.23563Q163.84125 279.75125 163.6225 280.25125Q163.41937 280.73563 162.91937 281.29813Q162.435 281.845 161.31 282.79813Q160.35687 283.595 160.07562 283.89188Q159.81 284.17313 159.63812 284.45438L163.85687 284.45438Z" fill-rule="nonzero"/><path fill="#ffffff" d="M161.685 221.49L161.685 219.4275L157.96625 219.4275L157.96625 218.45876L161.88812 212.89626L162.7475 212.89626L162.7475 218.45876L163.90375 218.45876L163.90375 219.4275L162.7475 219.4275L162.7475 221.49L161.685 221.49ZM161.685 218.45876L161.685 214.59938L158.9975 218.45876L161.685 218.45876Z" fill-rule="nonzero"/><path fill="#ffffff" d="M163.77875 151.02562L162.73187 151.10374Q162.59125 150.47874 162.34125 150.1975Q161.90375 149.74437 161.27875 149.74437Q160.77875 149.74437 160.38812 150.02562Q159.90375 150.40062 159.60687 151.10374Q159.32562 151.79124 159.31 153.0725Q159.685 152.49437 160.23187 152.21312Q160.79437 151.93187 161.40375 151.93187Q162.45062 151.93187 163.185 152.71312Q163.935 153.49437 163.935 154.71312Q163.935 155.52562 163.57562 156.22874Q163.23187 156.91624 162.6225 157.29124Q162.01312 157.65062 161.2475 157.65062Q159.91937 157.65062 159.09125 156.68187Q158.26312 155.71312 158.26312 153.49437Q158.26312 150.99437 159.185 149.86937Q159.98187 148.885 161.34125 148.885Q162.35687 148.885 162.9975 149.46312Q163.65375 150.02562 163.77875 151.02562ZM159.48187 154.72874Q159.48187 155.27562 159.70062 155.77562Q159.935 156.26 160.34125 156.52562Q160.76312 156.79124 161.23187 156.79124Q161.88812 156.79124 162.3725 156.26Q162.85687 155.71312 162.85687 154.79124Q162.85687 153.90062 162.3725 153.385Q161.90375 152.86937 161.185 152.86937Q160.46625 152.86937 159.96625 153.385Q159.48187 153.90062 159.48187 154.72874Z" fill-rule="nonzero"/><path fill="#ffffff" d="M159.935 88.87375Q159.27875 88.62375 158.95062 88.18625Q158.63812 87.73312 158.63812 87.12375Q158.63812 86.18625 159.31 85.54562Q159.9975 84.905 161.10687 84.905Q162.23187 84.905 162.91937 85.56125Q163.60687 86.2175 163.60687 87.155Q163.60687 87.74875 163.29437 88.18625Q162.98187 88.62375 162.34125 88.87375Q163.13812 89.12375 163.54437 89.70187Q163.95062 90.28 163.95062 91.07687Q163.95062 92.17062 163.16937 92.92062Q162.40375 93.67062 161.1225 93.67062Q159.85687 93.67062 159.07562 92.92062Q158.29437 92.17062 158.29437 91.04562Q158.29437 90.20187 158.71625 89.63937Q159.15375 89.07687 159.935 88.87375ZM159.71625 87.07687Q159.71625 87.68625 160.10687 88.07687Q160.51312 88.4675 161.13812 88.4675Q161.7475 88.4675 162.13812 88.0925Q162.52875 87.70187 162.52875 87.13937Q162.52875 86.56125 162.1225 86.17062Q161.71625 85.76437 161.1225 85.76437Q160.51312 85.76437 160.10687 86.155Q159.71625 86.54562 159.71625 87.07687ZM159.38812 91.04562Q159.38812 91.49875 159.59125 91.92062Q159.81 92.3425 160.23187 92.57687Q160.65375 92.81125 161.13812 92.81125Q161.88812 92.81125 162.3725 92.32687Q162.8725 91.8425 162.8725 91.0925Q162.8725 90.32687 162.3725 89.82687Q161.8725 89.32687 161.10687 89.32687Q160.35687 89.32687 159.8725 89.82687Q159.38812 90.31125 159.38812 91.04562Z" fill-rule="nonzero"/><path fill="#ffffff" d="M155.27875 29.55L154.23187 29.55L154.23187 22.83125Q153.84125 23.190624 153.21625 23.565624Q152.60687 23.925 152.1225 24.096874L152.1225 23.08125Q152.9975 22.659374 153.65375 22.08125Q154.32562 21.4875 154.60687 20.925L155.27875 20.925L155.27875 29.55ZM158.31 25.315624Q158.31 23.784374 158.6225 22.8625Q158.935 21.925 159.54437 21.425Q160.16937 20.925 161.10687 20.925Q161.79437 20.925 162.31 21.20625Q162.84125 21.4875 163.185 22.01875Q163.52875 22.534374 163.71625 23.284374Q163.90375 24.034374 163.90375 25.315624Q163.90375 26.83125 163.59125 27.753124Q163.29437 28.675 162.66937 29.190624Q162.06 29.690624 161.10687 29.690624Q159.8725 29.690624 159.15375 28.8Q158.31 27.7375 158.31 25.315624ZM159.38812 25.315624Q159.38812 27.425 159.88812 28.128124Q160.38812 28.83125 161.10687 28.83125Q161.84125 28.83125 162.32562 28.128124Q162.82562 27.425 162.82562 25.315624Q162.82562 23.190624 162.32562 22.503124Q161.84125 21.8 161.09125 21.8Q160.3725 21.8 159.935 22.409374Q159.38812 23.190624 159.38812 25.315624Z" fill-rule="nonzero"/><path fill="#4285f4" d="M18.55 20.55C18.55 19.997715 18.997715 19.55 19.55 19.55L29.55 19.55C30.102285 19.55 30.55 19.997715 30.55 20.55L30.55 30.55C30.55 31.102285 30.102285 31.55 29.55 31.55L19.55 31.55C18.997715 31.55 18.55 31.102285 18.55 30.55Z" fill-rule="nonzero"/><path fill="#1a1a1a" d="M39.471874 29.55L39.471874 20.95625L42.440624 20.95625Q43.440624 20.95625 43.971874 21.08125Q44.70625 21.253124 45.221874 21.690624Q45.909374 22.26875 46.2375 23.175Q46.58125 24.065624 46.58125 25.20625Q46.58125 26.190624 46.346874 26.940624Q46.128124 27.690624 45.76875 28.190624Q45.409374 28.690624 44.971874 28.971874Q44.55 29.253124 43.95625 29.409374Q43.3625 29.55 42.58125 29.55L39.471874 29.55ZM40.6125 28.534374L42.440624 28.534374Q43.3 28.534374 43.784374 28.378124Q44.26875 28.221874 44.55 27.925Q44.95625 27.534374 45.175 26.846874Q45.409374 26.159374 45.409374 25.190624Q45.409374 23.846874 44.95625 23.128124Q44.51875 22.39375 43.89375 22.14375Q43.425 21.971874 42.425 21.971874L40.6125 21.971874L40.6125 28.534374ZM48.33125 29.55L48.33125 23.33125L49.284374 23.33125L49.284374 24.26875Q49.64375 23.6125 49.940624 23.409374Q50.253124 23.190624 50.628124 23.190624Q51.159374 23.190624 51.70625 23.51875L51.346874 24.503124Q50.95625 24.26875 50.58125 24.26875Q50.221874 24.26875 49.940624 24.4875Q49.675 24.690624 49.565624 25.065624Q49.378124 25.628124 49.378124 26.284374L49.378124 29.55L48.33125 29.55ZM56.425 29.55L56.425 28.628124Q55.690624 29.690624 54.440624 29.690624Q53.89375 29.690624 53.409374 29.4875Q52.940624 29.26875 52.70625 28.95625Q52.471874 28.628124 52.378124 28.159374Q52.315624 27.8625 52.315624 27.175L52.315624 23.33125L53.378124 23.33125L53.378124 26.784374Q53.378124 27.596874 53.440624 27.89375Q53.534374 28.3 53.846874 28.55Q54.175 28.784374 54.659374 28.784374Q55.128124 28.784374 55.534374 28.55Q55.95625 28.3 56.128124 27.878124Q56.315624 27.45625 56.315624 26.659374L56.315624 23.33125L57.3625 23.33125L57.3625 29.55L56.425 29.55ZM59.346874 31.940624L59.346874 23.33125L60.3 23.33125L60.3 24.128124Q60.64375 23.659374 61.065624 23.425Q61.503124 23.190624 62.1125 23.190624Q62.909374 23.190624 63.51875 23.596874Q64.12813 24.003124 64.425 24.753124Q64.7375 25.503124 64.7375 26.39375Q64.7375 27.346874 64.39375 28.1125Q64.06563 28.878124 63.409374 29.284374Q62.753124 29.690624 62.034374 29.690624Q61.503124 29.690624 61.08125 29.471874Q60.659374 29.2375 60.39375 28.909374L60.39375 31.940624L59.346874 31.940624ZM60.3 26.471874Q60.3 27.675 60.784374 28.253124Q61.26875 28.815624 61.95625 28.815624Q62.659374 28.815624 63.159374 28.221874Q63.659374 27.628124 63.659374 26.378124Q63.659374 25.190624 63.175 24.6125Q62.690624 24.01875 62.003124 24.01875Q61.33125 24.01875 60.815624 24.64375Q60.3 25.26875 60.3 26.471874ZM70.40938 28.784374Q69.81563 29.284374 69.26875 29.4875Q68.7375 29.690624 68.1125 29.690624Q67.08125 29.690624 66.53438 29.190624Q65.9875 28.690624 65.9875 27.909374Q65.9875 27.45625 66.19063 27.08125Q66.39375 26.690624 66.7375 26.471874Q67.08125 26.2375 67.50313 26.128124Q67.8 26.034374 68.44063 25.95625Q69.70625 25.815624 70.31563 25.596874Q70.31563 25.378124 70.31563 25.33125Q70.31563 24.675 70.01875 24.409374Q69.6125 24.065624 68.81563 24.065624Q68.08125 24.065624 67.72188 24.33125Q67.3625 24.58125 67.19063 25.2375L66.15938 25.096874Q66.3 24.440624 66.62813 24.034374Q66.95625 23.628124 67.56563 23.409374Q68.175 23.190624 68.97188 23.190624Q69.76875 23.190624 70.26875 23.378124Q70.76875 23.565624 71.00313 23.846874Q71.2375 24.128124 71.33125 24.565624Q71.37813 24.83125 71.37813 25.534374L71.37813 26.940624Q71.37813 28.409374 71.44063 28.8Q71.51875 29.190624 71.72188 29.55L70.6125 29.55Q70.45625 29.221874 70.40938 28.784374ZM70.31563 26.425Q69.7375 26.659374 68.59688 26.83125Q67.94063 26.925 67.675 27.05Q67.40938 27.159374 67.25313 27.378124Q67.1125 27.596874 67.1125 27.878124Q67.1125 28.3 67.425 28.58125Q67.75313 28.8625 68.3625 28.8625Q68.97188 28.8625 69.44063 28.596874Q69.925 28.33125 70.14375 27.8625Q70.31563 27.503124 70.31563 26.815624L70.31563 26.425ZM73.31563 29.55L73.31563 20.95625L74.37813 20.95625L74.37813 29.55L73.31563 29.55ZM75.55 29.690624L78.03438 20.815624L78.87813 20.815624L76.39375 29.690624L75.55 29.690624ZM79.47188 29.55L79.47188 20.95625L82.44063 20.95625Q83.44063 20.95625 83.97188 21.08125Q84.70625 21.253124 85.22188 21.690624Q85.90938 22.26875 86.2375 23.175Q86.58125 24.065624 86.58125 25.20625Q86.58125 26.190624 86.34688 26.940624Q86.12813 27.690624 85.76875 28.190624Q85.40938 28.690624 84.97188 28.971874Q84.55 29.253124 83.95625 29.409374Q83.3625 29.55 82.58125 29.55L79.47188 29.55ZM80.6125 28.534374L82.44063 28.534374Q83.3 28.534374 83.78438 28.378124Q84.26875 28.221874 84.55 27.925Q84.95625 27.534374 85.175 26.846874Q85.40938 26.159374 85.40938 25.190624Q85.40938 23.846874 84.95625 23.128124Q84.51875 22.39375 83.89375 22.14375Q83.425 21.971874 82.425 21.971874L80.6125 21.971874L80.6125 28.534374ZM88.33125 22.190624L88.33125 20.95625L89.39375 20.95625L89.39375 22.190624L88.33125 22.190624ZM87.00313 31.971874L87.19063 31.065624Q87.51875 31.14375 87.69063 31.14375Q88.01875 31.14375 88.175 30.925Q88.33125 30.721874 88.33125 29.8625L88.33125 23.33125L89.39375 23.33125L89.39375 29.89375Q89.39375 31.034374 89.09688 31.4875Q88.70625 32.08125 87.83125 32.08125Q87.39375 32.08125 87.00313 31.971874ZM95.40938 28.784374Q94.81563 29.284374 94.26875 29.4875Q93.7375 29.690624 93.1125 29.690624Q92.08125 29.690624 91.53438 29.190624Q90.9875 28.690624 90.9875 27.909374Q90.9875 27.45625 91.19063 27.08125Q91.39375 26.690624 91.7375 26.471874Q92.08125 26.2375 92.50313 26.128124Q92.8 26.034374 93.44063 25.95625Q94.70625 25.815624 95.31563 25.596874Q95.31563 25.378124 95.31563 25.33125Q95.31563 24.675 95.01875 24.409374Q94.6125 24.065624 93.81563 24.065624Q93.08125 24.065624 92.72188 24.33125Q92.3625 24.58125 92.19063 25.2375L91.15938 25.096874Q91.3 24.440624 91.62813 24.034374Q91.95625 23.628124 92.56563 23.409374Q93.175 23.190624 93.97188 23.190624Q94.76875 23.190624 95.26875 23.378124Q95.76875 23.565624 96.00313 23.846874Q96.2375 24.128124 96.33125 24.565624Q96.37813 24.83125 96.37813 25.534374L96.37813 26.940624Q96.37813 28.409374 96.44063 28.8Q96.51875 29.190624 96.72188 29.55L95.6125 29.55Q95.45625 29.221874 95.40938 28.784374ZM95.31563 26.425Q94.7375 26.659374 93.59688 26.83125Q92.94063 26.925 92.675 27.05Q92.40938 27.159374 92.25313 27.378124Q92.1125 27.596874 92.1125 27.878124Q92.1125 28.3 92.425 28.58125Q92.75313 28.8625 93.3625 28.8625Q93.97188 28.8625 94.44063 28.596874Q94.925 28.33125 95.14375 27.8625Q95.31563 27.503124 95.31563 26.815624L95.31563 26.425ZM98.34688 29.55L98.34688 23.33125L99.28438 23.33125L99.28438 24.20625Q99.97188 23.190624 101.26875 23.190624Q101.83125 23.190624 102.3 23.39375Q102.78438 23.596874 103.01875 23.925Q103.25313 24.253124 103.34688 24.690624Q103.39375 24.9875 103.39375 25.721874L103.39375 29.55L102.34688 29.55L102.34688 25.76875Q102.34688 25.1125 102.22188 24.8Q102.09688 24.4875 101.78438 24.3Q101.47188 24.096874 101.05 24.096874Q100.37813 24.096874 99.87813 24.534374Q99.39375 24.95625 99.39375 26.14375L99.39375 29.55L98.34688 29.55ZM105.14375 30.065624L106.175 30.221874Q106.2375 30.690624 106.53438 30.909374Q106.925 31.20625 107.59688 31.20625Q108.33125 31.20625 108.72188 30.909374Q109.12813 30.6125 109.26875 30.096874Q109.3625 29.76875 109.34688 28.7375Q108.65938 29.55 107.62813 29.55Q106.34688 29.55 105.64375 28.628124Q104.94063 27.690624 104.94063 26.409374Q104.94063 25.51875 105.25313 24.76875Q105.58125 24.003124 106.19063 23.596874Q106.8 23.190624 107.62813 23.190624Q108.7375 23.190624 109.45625 24.08125L109.45625 23.33125L110.425 23.33125L110.425 28.70625Q110.425 30.159374 110.12813 30.76875Q109.83125 31.378124 109.19063 31.721874Q108.55 32.08125 107.6125 32.08125Q106.50313 32.08125 105.81563 31.58125Q105.12813 31.08125 105.14375 30.065624ZM106.01875 26.33125Q106.01875 27.55 106.50313 28.1125Q106.9875 28.675 107.72188 28.675Q108.45625 28.675 108.94063 28.1125Q109.44063 27.55 109.44063 26.3625Q109.44063 25.221874 108.925 24.64375Q108.425 24.065624 107.70625 24.065624Q107.00313 24.065624 106.50313 24.64375Q106.01875 25.20625 106.01875 26.33125ZM111.95625 26.440624Q111.95625 24.70625 112.90938 23.878124Q113.70625 23.190624 114.8625 23.190624Q116.14375 23.190624 116.95625 24.034374Q117.78438 24.8625 117.78438 26.346874Q117.78438 27.55 117.425 28.2375Q117.06563 28.925 116.3625 29.315624Q115.675 29.690624 114.8625 29.690624Q113.56563 29.690624 112.75313 28.8625Q111.95625 28.01875 111.95625 26.440624ZM113.03438 26.440624Q113.03438 27.628124 113.55 28.221874Q114.08125 28.815624 114.8625 28.815624Q115.65938 28.815624 116.175 28.221874Q116.69063 27.628124 116.69063 26.409374Q116.69063 25.253124 116.15938 24.659374Q115.64375 24.065624 114.8625 24.065624Q114.08125 24.065624 113.55 24.659374Q113.03438 25.2375 113.03438 26.440624Z" fill-rule="nonzero"/><path fill="#ea4335" d="M18.55 44.55C18.55 43.997715 18.997715 43.55 19.55 43.55L29.55 43.55C30.102285 43.55 30.55 43.997715 30.55 44.55L30.55 54.55C30.55 55.102283 30.102285 55.55 29.55 55.55L19.55 55.55C18.997715 55.55 18.55 55.102283 18.55 54.55Z" fill-rule="nonzero"/><path fill="#1a1a1a" d="M45.6125 50.534374L46.7375 50.83125Q46.378124 52.221874 45.45625 52.95625Q44.534374 53.690624 43.190624 53.690624Q41.8 53.690624 40.925 53.128124Q40.05 52.565624 39.596874 51.503124Q39.14375 50.425 39.14375 49.190624Q39.14375 47.846874 39.659374 46.846874Q40.175 45.846874 41.1125 45.33125Q42.065624 44.815624 43.20625 44.815624Q44.4875 44.815624 45.3625 45.471874Q46.253124 46.128124 46.596874 47.315624L45.471874 47.58125Q45.175 46.64375 44.596874 46.221874Q44.034374 45.784374 43.175 45.784374Q42.190624 45.784374 41.51875 46.26875Q40.8625 46.7375 40.58125 47.534374Q40.315624 48.33125 40.315624 49.190624Q40.315624 50.284374 40.628124 51.096874Q40.95625 51.909374 41.628124 52.315624Q42.3 52.721874 43.096874 52.721874Q44.05 52.721874 44.70625 52.175Q45.378124 51.628124 45.6125 50.534374ZM47.95625 50.440624Q47.95625 48.70625 48.909374 47.878124Q49.70625 47.190624 50.8625 47.190624Q52.14375 47.190624 52.95625 48.034374Q53.784374 48.8625 53.784374 50.346874Q53.784374 51.55 53.425 52.2375Q53.065624 52.925 52.3625 53.315624Q51.675 53.690624 50.8625 53.690624Q49.565624 53.690624 48.753124 52.8625Q47.95625 52.01875 47.95625 50.440624ZM49.034374 50.440624Q49.034374 51.628124 49.55 52.221874Q50.08125 52.815624 50.8625 52.815624Q51.659374 52.815624 52.175 52.221874Q52.690624 51.628124 52.690624 50.409374Q52.690624 49.253124 52.159374 48.659374Q51.64375 48.065624 50.8625 48.065624Q50.08125 48.065624 49.55 48.659374Q49.034374 49.2375 49.034374 50.440624ZM55.346874 53.55L55.346874 47.33125L56.284374 47.33125L56.284374 48.20625Q56.971874 47.190624 58.26875 47.190624Q58.83125 47.190624 59.3 47.39375Q59.784374 47.596874 60.01875 47.925Q60.253124 48.253124 60.346874 48.690624Q60.39375 48.9875 60.39375 49.721874L60.39375 53.55L59.346874 53.55L59.346874 49.76875Q59.346874 49.1125 59.221874 48.8Q59.096874 48.4875 58.784374 48.3Q58.471874 48.096874 58.05 48.096874Q57.378124 48.096874 56.878124 48.534374Q56.39375 48.95625 56.39375 50.14375L56.39375 53.55L55.346874 53.55ZM64.64375 52.6125L64.8 53.534374Q64.34688 53.628124 64.00313 53.628124Q63.425 53.628124 63.1125 53.45625Q62.8 53.26875 62.659374 52.971874Q62.534374 52.675 62.534374 51.721874L62.534374 48.14375L61.76875 48.14375L61.76875 47.33125L62.534374 47.33125L62.534374 45.784374L63.58125 45.159374L63.58125 47.33125L64.64375 47.33125L64.64375 48.14375L63.58125 48.14375L63.58125 51.784374Q63.58125 52.2375 63.628124 52.3625Q63.690624 52.4875 63.815624 52.565624Q63.940624 52.64375 64.175 52.64375Q64.3625 52.64375 64.64375 52.6125ZM69.59688 51.55L70.69063 51.675Q70.44063 52.628124 69.7375 53.159374Q69.03438 53.690624 67.95625 53.690624Q66.59688 53.690624 65.78438 52.846874Q64.9875 52.003124 64.9875 50.4875Q64.9875 48.925 65.8 48.065624Q66.6125 47.190624 67.89375 47.190624Q69.14375 47.190624 69.925 48.034374Q70.72188 48.878124 70.72188 50.425Q70.72188 50.51875 70.72188 50.70625L66.08125 50.70625Q66.14375 51.7375 66.65938 52.284374Q67.175 52.815624 67.95625 52.815624Q68.53438 52.815624 68.94063 52.51875Q69.3625 52.20625 69.59688 51.55ZM66.14375 49.846874L69.6125 49.846874Q69.55 49.05 69.22188 48.659374Q68.70625 48.05 67.90938 48.05Q67.175 48.05 66.675 48.534374Q66.19063 49.01875 66.14375 49.846874ZM72.34688 53.55L72.34688 47.33125L73.28438 47.33125L73.28438 48.20625Q73.97188 47.190624 75.26875 47.190624Q75.83125 47.190624 76.3 47.39375Q76.78438 47.596874 77.01875 47.925Q77.25313 48.253124 77.34688 48.690624Q77.39375 48.9875 77.39375 49.721874L77.39375 53.55L76.34688 53.55L76.34688 49.76875Q76.34688 49.1125 76.22188 48.8Q76.09688 48.4875 75.78438 48.3Q75.47188 48.096874 75.05 48.096874Q74.37813 48.096874 73.87813 48.534374Q73.39375 48.95625 73.39375 50.14375L73.39375 53.55L72.34688 53.55ZM81.64375 52.6125L81.8 53.534374Q81.34688 53.628124 81.00313 53.628124Q80.425 53.628124 80.1125 53.45625Q79.8 53.26875 79.65938 52.971874Q79.53438 52.675 79.53438 51.721874L79.53438 48.14375L78.76875 48.14375L78.76875 47.33125L79.53438 47.33125L79.53438 45.784374L80.58125 45.159374L80.58125 47.33125L81.64375 47.33125L81.64375 48.14375L80.58125 48.14375L80.58125 51.784374Q80.58125 52.2375 80.62813 52.3625Q80.69063 52.4875 80.81563 52.565624Q80.94063 52.64375 81.175 52.64375Q81.3625 52.64375 81.64375 52.6125ZM82.59688 53.55L82.59688 48.14375L81.65938 48.14375L81.65938 47.33125L82.59688 47.33125L82.59688 46.659374Q82.59688 46.034374 82.70625 45.7375Q82.8625 45.315624 83.2375 45.065624Q83.62813 44.815624 84.31563 44.815624Q84.76875 44.815624 85.3 44.925L85.14375 45.83125Q84.81563 45.784374 84.51875 45.784374Q84.03438 45.784374 83.83125 45.9875Q83.64375 46.190624 83.64375 46.753124L83.64375 47.33125L84.8625 47.33125L84.8625 48.14375L83.64375 48.14375L83.64375 53.55L82.59688 53.55ZM89.425 53.55L89.425 52.628124Q88.69063 53.690624 87.44063 53.690624Q86.89375 53.690624 86.40938 53.4875Q85.94063 53.26875 85.70625 52.95625Q85.47188 52.628124 85.37813 52.159374Q85.31563 51.8625 85.31563 51.175L85.31563 47.33125L86.37813 47.33125L86.37813 50.784374Q86.37813 51.596874 86.44063 51.89375Q86.53438 52.3 86.84688 52.55Q87.175 52.784374 87.65938 52.784374Q88.12813 52.784374 88.53438 52.55Q88.95625 52.3 89.12813 51.878124Q89.31563 51.45625 89.31563 50.659374L89.31563 47.33125L90.3625 47.33125L90.3625 53.55L89.425 53.55ZM92.31563 53.55L92.31563 44.95625L93.37813 44.95625L93.37813 53.55L92.31563 53.55Z" fill-rule="nonzero"/><path fill="#fbbc04" d="M18.55 68.55C18.55 67.99772 18.997715 67.55 19.55 67.55L29.55 67.55C30.102285 67.55 30.55 67.99772 30.55 68.55L30.55 78.55C30.55 79.10229 30.102285 79.55 29.55 79.55L19.55 79.55C18.997715 79.55 18.55 79.10229 18.55 78.55Z" fill-rule="nonzero"/><path fill="#1a1a1a" d="M39.096874 74.78438L40.159374 74.69063Q40.2375 75.34688 40.51875 75.75313Q40.8 76.15938 41.378124 76.425Q41.971874 76.675 42.70625 76.675Q43.346874 76.675 43.846874 76.4875Q44.346874 76.28438 44.58125 75.95625Q44.83125 75.6125 44.83125 75.22188Q44.83125 74.81563 44.596874 74.51875Q44.3625 74.20625 43.83125 74.00313Q43.471874 73.8625 42.284374 73.58125Q41.1125 73.3 40.64375 73.05Q40.01875 72.72188 39.721874 72.25313Q39.425 71.76875 39.425 71.175Q39.425 70.53438 39.784374 69.97188Q40.159374 69.39375 40.8625 69.1125Q41.58125 68.81563 42.440624 68.81563Q43.39375 68.81563 44.128124 69.12813Q44.8625 69.425 45.253124 70.03438Q45.64375 70.62813 45.675 71.37813L44.58125 71.45625Q44.4875 70.64375 43.971874 70.2375Q43.471874 69.81563 42.4875 69.81563Q41.45625 69.81563 40.9875 70.19063Q40.51875 70.56563 40.51875 71.09688Q40.51875 71.56563 40.846874 71.8625Q41.175 72.15938 42.55 72.47188Q43.940624 72.78438 44.45625 73.01875Q45.20625 73.37813 45.565624 73.90938Q45.925 74.425 45.925 75.12813Q45.925 75.81563 45.534374 76.425Q45.14375 77.01875 44.409374 77.3625Q43.675 77.69063 42.753124 77.69063Q41.58125 77.69063 40.784374 77.3625Q40.003124 77.01875 39.55 76.33125Q39.1125 75.64375 39.096874 74.78438ZM51.315624 79.94063L51.315624 76.89375Q51.065624 77.2375 50.6125 77.47188Q50.175 77.69063 49.675 77.69063Q48.565624 77.69063 47.76875 76.81563Q46.971874 75.925 46.971874 74.37813Q46.971874 73.44063 47.3 72.70625Q47.628124 71.95625 48.2375 71.58125Q48.8625 71.19063 49.596874 71.19063Q50.753124 71.19063 51.409374 72.15938L51.409374 71.33125L52.3625 71.33125L52.3625 79.94063L51.315624 79.94063ZM48.05 74.425Q48.05 75.62813 48.55 76.22188Q49.065624 76.81563 49.76875 76.81563Q50.440624 76.81563 50.925 76.25313Q51.409374 75.675 51.409374 74.51875Q51.409374 73.26875 50.89375 72.64375Q50.39375 72.01875 49.690624 72.01875Q49.01875 72.01875 48.534374 72.6125Q48.05 73.19063 48.05 74.425ZM58.425 77.55L58.425 76.62813Q57.690624 77.69063 56.440624 77.69063Q55.89375 77.69063 55.409374 77.4875Q54.940624 77.26875 54.70625 76.95625Q54.471874 76.62813 54.378124 76.15938Q54.315624 75.8625 54.315624 75.175L54.315624 71.33125L55.378124 71.33125L55.378124 74.78438Q55.378124 75.59688 55.440624 75.89375Q55.534374 76.3 55.846874 76.55Q56.175 76.78438 56.659374 76.78438Q57.128124 76.78438 57.534374 76.55Q57.95625 76.3 58.128124 75.87813Q58.315624 75.45625 58.315624 74.65938L58.315624 71.33125L59.3625 71.33125L59.3625 77.55L58.425 77.55ZM65.40938 76.78438Q64.81563 77.28438 64.26875 77.4875Q63.7375 77.69063 63.1125 77.69063Q62.08125 77.69063 61.534374 77.19063Q60.9875 76.69063 60.9875 75.90938Q60.9875 75.45625 61.190624 75.08125Q61.39375 74.69063 61.7375 74.47188Q62.08125 74.2375 62.503124 74.12813Q62.8 74.03438 63.440624 73.95625Q64.70625 73.81563 65.31563 73.59688Q65.31563 73.37813 65.31563 73.33125Q65.31563 72.675 65.01875 72.40938Q64.6125 72.06563 63.815624 72.06563Q63.08125 72.06563 62.721874 72.33125Q62.3625 72.58125 62.190624 73.2375L61.159374 73.09688Q61.3 72.44063 61.628124 72.03438Q61.95625 71.62813 62.565624 71.40938Q63.175 71.19063 63.971874 71.19063Q64.76875 71.19063 65.26875 71.37813Q65.76875 71.56563 66.00313 71.84688Q66.2375 72.12813 66.33125 72.56563Q66.37813 72.83125 66.37813 73.53438L66.37813 74.94063Q66.37813 76.40938 66.44063 76.8Q66.51875 77.19063 66.72188 77.55L65.6125 77.55Q65.45625 77.22188 65.40938 76.78438ZM65.31563 74.425Q64.7375 74.65938 63.596874 74.83125Q62.940624 74.925 62.675 75.05Q62.409374 75.15938 62.253124 75.37813Q62.1125 75.59688 62.1125 75.87813Q62.1125 76.3 62.425 76.58125Q62.753124 76.8625 63.3625 76.8625Q63.971874 76.8625 64.44063 76.59688Q64.925 76.33125 65.14375 75.8625Q65.31563 75.50313 65.31563 74.81563L65.31563 74.425ZM68.33125 77.55L68.33125 71.33125L69.28438 71.33125L69.28438 72.26875Q69.64375 71.6125 69.94063 71.40938Q70.25313 71.19063 70.62813 71.19063Q71.15938 71.19063 71.70625 71.51875L71.34688 72.50313Q70.95625 72.26875 70.58125 72.26875Q70.22188 72.26875 69.94063 72.4875Q69.675 72.69063 69.56563 73.06563Q69.37813 73.62813 69.37813 74.28438L69.37813 77.55L68.33125 77.55ZM76.59688 75.55L77.69063 75.675Q77.44063 76.62813 76.7375 77.15938Q76.03438 77.69063 74.95625 77.69063Q73.59688 77.69063 72.78438 76.84688Q71.9875 76.00313 71.9875 74.4875Q71.9875 72.925 72.8 72.06563Q73.6125 71.19063 74.89375 71.19063Q76.14375 71.19063 76.925 72.03438Q77.72188 72.87813 77.72188 74.425Q77.72188 74.51875 77.72188 74.70625L73.08125 74.70625Q73.14375 75.7375 73.65938 76.28438Q74.175 76.81563 74.95625 76.81563Q75.53438 76.81563 75.94063 76.51875Q76.3625 76.20625 76.59688 75.55ZM73.14375 73.84688L76.6125 73.84688Q76.55 73.05 76.22188 72.65938Q75.70625 72.05 74.90938 72.05Q74.175 72.05 73.675 72.53438Q73.19063 73.01875 73.14375 73.84688ZM78.925 75.69063L79.95625 75.53438Q80.05 76.15938 80.44063 76.4875Q80.84688 76.81563 81.58125 76.81563Q82.3 76.81563 82.64375 76.53438Q83.00313 76.2375 83.00313 75.83125Q83.00313 75.47188 82.69063 75.26875Q82.47188 75.12813 81.6125 74.90938Q80.45625 74.6125 80.00313 74.40938Q79.56563 74.19063 79.33125 73.81563Q79.09688 73.44063 79.09688 72.97188Q79.09688 72.56563 79.28438 72.20625Q79.47188 71.84688 79.8 71.6125Q80.05 71.44063 80.47188 71.31563Q80.89375 71.19063 81.39375 71.19063Q82.1125 71.19063 82.65938 71.40938Q83.22188 71.6125 83.4875 71.97188Q83.75313 72.33125 83.84688 72.925L82.81563 73.06563Q82.75313 72.59688 82.40938 72.33125Q82.08125 72.05 81.45625 72.05Q80.7375 72.05 80.425 72.3Q80.1125 72.53438 80.1125 72.8625Q80.1125 73.06563 80.2375 73.22188Q80.37813 73.39375 80.64375 73.50313Q80.8 73.56563 81.58125 73.76875Q82.70625 74.08125 83.14375 74.26875Q83.58125 74.45625 83.83125 74.81563Q84.08125 75.175 84.08125 75.72188Q84.08125 76.25313 83.76875 76.72188Q83.47188 77.175 82.89375 77.44063Q82.31563 77.69063 81.58125 77.69063Q80.3625 77.69063 79.72188 77.19063Q79.09688 76.675 78.925 75.69063ZM85.34688 79.94063L85.34688 71.33125L86.3 71.33125L86.3 72.12813Q86.64375 71.65938 87.06563 71.425Q87.50313 71.19063 88.1125 71.19063Q88.90938 71.19063 89.51875 71.59688Q90.12813 72.00313 90.425 72.75313Q90.7375 73.50313 90.7375 74.39375Q90.7375 75.34688 90.39375 76.1125Q90.06563 76.87813 89.40938 77.28438Q88.75313 77.69063 88.03438 77.69063Q87.50313 77.69063 87.08125 77.47188Q86.65938 77.2375 86.39375 76.90938L86.39375 79.94063L85.34688 79.94063ZM86.3 74.47188Q86.3 75.675 86.78438 76.25313Q87.26875 76.81563 87.95625 76.81563Q88.65938 76.81563 89.15938 76.22188Q89.65938 75.62813 89.65938 74.37813Q89.65938 73.19063 89.175 72.6125Q88.69063 72.01875 88.00313 72.01875Q87.33125 72.01875 86.81563 72.64375Q86.3 73.26875 86.3 74.47188ZM96.40938 76.78438Q95.81563 77.28438 95.26875 77.4875Q94.7375 77.69063 94.1125 77.69063Q93.08125 77.69063 92.53438 77.19063Q91.9875 76.69063 91.9875 75.90938Q91.9875 75.45625 92.19063 75.08125Q92.39375 74.69063 92.7375 74.47188Q93.08125 74.2375 93.50313 74.12813Q93.8 74.03438 94.44063 73.95625Q95.70625 73.81563 96.31563 73.59688Q96.31563 73.37813 96.31563 73.33125Q96.31563 72.675 96.01875 72.40938Q95.6125 72.06563 94.81563 72.06563Q94.08125 72.06563 93.72188 72.33125Q93.3625 72.58125 93.19063 73.2375L92.15938 73.09688Q92.3 72.44063 92.62813 72.03438Q92.95625 71.62813 93.56563 71.40938Q94.175 71.19063 94.97188 71.19063Q95.76875 71.19063 96.26875 71.37813Q96.76875 71.56563 97.00313 71.84688Q97.2375 72.12813 97.33125 72.56563Q97.37813 72.83125 97.37813 73.53438L97.37813 74.94063Q97.37813 76.40938 97.44063 76.8Q97.51875 77.19063 97.72188 77.55L96.6125 77.55Q96.45625 77.22188 96.40938 76.78438ZM96.31563 74.425Q95.7375 74.65938 94.59688 74.83125Q93.94063 74.925 93.675 75.05Q93.40938 75.15938 93.25313 75.37813Q93.1125 75.59688 93.1125 75.87813Q93.1125 76.3 93.425 76.58125Q93.75313 76.8625 94.3625 76.8625Q94.97188 76.8625 95.44063 76.59688Q95.925 76.33125 96.14375 75.8625Q96.31563 75.50313 96.31563 74.81563L96.31563 74.425ZM103.40938 75.26875L104.44063 75.40938Q104.26875 76.47188 103.56563 77.08125Q102.8625 77.69063 101.84688 77.69063Q100.56563 77.69063 99.78438 76.8625Q99.01875 76.01875 99.01875 74.45625Q99.01875 73.45625 99.34688 72.70625Q99.69063 71.94063 100.3625 71.56563Q101.05 71.19063 101.8625 71.19063Q102.8625 71.19063 103.50313 71.70625Q104.15938 72.20625 104.34688 73.15938L103.31563 73.31563Q103.175 72.69063 102.8 72.37813Q102.425 72.05 101.89375 72.05Q101.09688 72.05 100.59688 72.62813Q100.09688 73.19063 100.09688 74.425Q100.09688 75.69063 100.58125 76.25313Q101.06563 76.81563 101.83125 76.81563Q102.45625 76.81563 102.8625 76.44063Q103.28438 76.06563 103.40938 75.26875ZM109.59688 75.55L110.69063 75.675Q110.44063 76.62813 109.7375 77.15938Q109.03438 77.69063 107.95625 77.69063Q106.59688 77.69063 105.78438 76.84688Q104.9875 76.00313 104.9875 74.4875Q104.9875 72.925 105.8 72.06563Q106.6125 71.19063 107.89375 71.19063Q109.14375 71.19063 109.925 72.03438Q110.72188 72.87813 110.72188 74.425Q110.72188 74.51875 110.72188 74.70625L106.08125 74.70625Q106.14375 75.7375 106.65938 76.28438Q107.175 76.81563 107.95625 76.81563Q108.53438 76.81563 108.94063 76.51875Q109.3625 76.20625 109.59688 75.55ZM106.14375 73.84688L109.6125 73.84688Q109.55 73.05 109.22188 72.65938Q108.70625 72.05 107.90938 72.05Q107.175 72.05 106.675 72.53438Q106.19063 73.01875 106.14375 73.84688Z" fill-rule="nonzero"/><path fill="#34a853" d="M18.55 92.55C18.55 91.99772 18.997715 91.55 19.55 91.55L29.55 91.55C30.102285 91.55 30.55 91.99772 30.55 92.55L30.55 102.55C30.55 103.10229 30.102285 103.55 29.55 103.55L19.55 103.55C18.997715 103.55 18.55 103.10229 18.55 102.55Z" fill-rule="nonzero"/><path fill="#1a1a1a" d="M43.503124 98.175L43.503124 97.175L47.128124 97.15938L47.128124 100.34688Q46.3 101.01875 45.409374 101.3625Q44.51875 101.69063 43.58125 101.69063Q42.315624 101.69063 41.26875 101.15938Q40.2375 100.6125 39.70625 99.59688Q39.190624 98.56563 39.190624 97.3Q39.190624 96.03438 39.70625 94.95625Q40.2375 93.8625 41.221874 93.34688Q42.20625 92.81563 43.4875 92.81563Q44.425 92.81563 45.175 93.1125Q45.925 93.40938 46.346874 93.95625Q46.784374 94.4875 47.003124 95.3625L45.9875 95.64375Q45.784374 94.9875 45.4875 94.6125Q45.20625 94.2375 44.675 94.01875Q44.14375 93.78438 43.503124 93.78438Q42.721874 93.78438 42.14375 94.01875Q41.58125 94.25313 41.221874 94.64375Q40.878124 95.03438 40.690624 95.50313Q40.3625 96.3 40.3625 97.22188Q40.3625 98.37813 40.753124 99.15938Q41.159374 99.925 41.909374 100.3Q42.659374 100.675 43.51875 100.675Q44.253124 100.675 44.95625 100.39375Q45.659374 100.09688 46.01875 99.78438L46.01875 98.175L43.503124 98.175ZM48.346874 101.55L48.346874 95.33125L49.284374 95.33125L49.284374 96.20625Q49.58125 95.7375 50.065624 95.47188Q50.55 95.19063 51.175 95.19063Q51.8625 95.19063 52.3 95.47188Q52.753124 95.75313 52.925 96.26875Q53.675 95.19063 54.846874 95.19063Q55.784374 95.19063 56.26875 95.70625Q56.76875 96.20625 56.76875 97.28438L56.76875 101.55L55.721874 101.55L55.721874 97.62813Q55.721874 97.00313 55.6125 96.72188Q55.51875 96.44063 55.253124 96.26875Q54.9875 96.09688 54.6125 96.09688Q53.95625 96.09688 53.51875 96.53438Q53.096874 96.97188 53.096874 97.94063L53.096874 101.55L52.034374 101.55L52.034374 97.50313Q52.034374 96.8 51.76875 96.45625Q51.51875 96.09688 50.940624 96.09688Q50.4875 96.09688 50.1125 96.33125Q49.7375 96.56563 49.565624 97.01875Q49.39375 97.47188 49.39375 98.31563L49.39375 101.55L48.346874 101.55ZM62.409374 100.78438Q61.815624 101.28438 61.26875 101.4875Q60.7375 101.69063 60.1125 101.69063Q59.08125 101.69063 58.534374 101.19063Q57.9875 100.69063 57.9875 99.90938Q57.9875 99.45625 58.190624 99.08125Q58.39375 98.69063 58.7375 98.47188Q59.08125 98.2375 59.503124 98.12813Q59.8 98.03438 60.440624 97.95625Q61.70625 97.81563 62.315624 97.59688Q62.315624 97.37813 62.315624 97.33125Q62.315624 96.675 62.01875 96.40938Q61.6125 96.06563 60.815624 96.06563Q60.08125 96.06563 59.721874 96.33125Q59.3625 96.58125 59.190624 97.2375L58.159374 97.09688Q58.3 96.44063 58.628124 96.03438Q58.95625 95.62813 59.565624 95.40938Q60.175 95.19063 60.971874 95.19063Q61.76875 95.19063 62.26875 95.37813Q62.76875 95.56563 63.003124 95.84688Q63.2375 96.12813 63.33125 96.56563Q63.378124 96.83125 63.378124 97.53438L63.378124 98.94063Q63.378124 100.40938 63.440624 100.8Q63.51875 101.19063 63.721874 101.55L62.6125 101.55Q62.45625 101.22188 62.409374 100.78438ZM62.315624 98.425Q61.7375 98.65938 60.596874 98.83125Q59.940624 98.925 59.675 99.05Q59.409374 99.15938 59.253124 99.37813Q59.1125 99.59688 59.1125 99.87813Q59.1125 100.3 59.425 100.58125Q59.753124 100.8625 60.3625 100.8625Q60.971874 100.8625 61.440624 100.59688Q61.925 100.33125 62.14375 99.8625Q62.315624 99.50313 62.315624 98.81563L62.315624 98.425ZM65.34688 94.175L65.34688 92.95625L66.40938 92.95625L66.40938 94.175L65.34688 94.175ZM65.34688 101.55L65.34688 95.33125L66.40938 95.33125L66.40938 101.55L65.34688 101.55ZM68.31563 101.55L68.31563 92.95625L69.37813 92.95625L69.37813 101.55L68.31563 101.55Z" fill-rule="nonzero"/><path fill="#ff6d01" d="M18.55 116.55C18.55 115.99772 18.997715 115.55 19.55 115.55L29.55 115.55C30.102285 115.55 30.55 115.99772 30.55 116.55L30.55 126.55C30.55 127.10229 30.102285 127.55 29.55 127.55L19.55 127.55C18.997715 127.55 18.55 127.10229 18.55 126.55Z" fill-rule="nonzero"/><path fill="#1a1a1a" d="M41.659374 125.55L41.659374 117.97188L38.83125 117.97188L38.83125 116.95625L45.64375 116.95625L45.64375 117.97188L42.8 117.97188L42.8 125.55L41.659374 125.55ZM47.4875 125.55L45.58125 119.33125L46.675 119.33125L47.659374 122.925L48.034374 124.25313Q48.065624 124.15938 48.3625 122.97188L49.346874 119.33125L50.425 119.33125L51.3625 122.94063L51.675 124.12813L52.034374 122.925L53.096874 119.33125L54.128124 119.33125L52.175 125.55L51.08125 125.55L50.096874 121.81563L49.846874 120.76875L48.596874 125.55L47.4875 125.55ZM55.346874 118.175L55.346874 116.95625L56.409374 116.95625L56.409374 118.175L55.346874 118.175ZM55.346874 125.55L55.346874 119.33125L56.409374 119.33125L56.409374 125.55L55.346874 125.55ZM60.64375 124.6125L60.8 125.53438Q60.346874 125.62813 60.003124 125.62813Q59.425 125.62813 59.1125 125.45625Q58.8 125.26875 58.659374 124.97188Q58.534374 124.675 58.534374 123.72188L58.534374 120.14375L57.76875 120.14375L57.76875 119.33125L58.534374 119.33125L58.534374 117.78438L59.58125 117.15938L59.58125 119.33125L60.64375 119.33125L60.64375 120.14375L59.58125 120.14375L59.58125 123.78438Q59.58125 124.2375 59.628124 124.3625Q59.690624 124.4875 59.815624 124.56563Q59.940624 124.64375 60.175 124.64375Q60.3625 124.64375 60.64375 124.6125ZM63.64375 124.6125L63.8 125.53438Q63.346874 125.62813 63.003124 125.62813Q62.425 125.62813 62.1125 125.45625Q61.8 125.26875 61.659374 124.97188Q61.534374 124.675 61.534374 123.72188L61.534374 120.14375L60.76875 120.14375L60.76875 119.33125L61.534374 119.33125L61.534374 117.78438L62.58125 117.15938L62.58125 119.33125L63.64375 119.33125L63.64375 120.14375L62.58125 120.14375L62.58125 123.78438Q62.58125 124.2375 62.628124 124.3625Q62.690624 124.4875 62.815624 124.56563Q62.940624 124.64375 63.175 124.64375Q63.3625 124.64375 63.64375 124.6125ZM68.59688 123.55L69.69063 123.675Q69.44063 124.62813 68.7375 125.15938Q68.03438 125.69063 66.95625 125.69063Q65.59688 125.69063 64.78438 124.84688Q63.9875 124.00313 63.9875 122.4875Q63.9875 120.925 64.8 120.06563Q65.6125 119.19063 66.89375 119.19063Q68.14375 119.19063 68.925 120.03438Q69.72188 120.87813 69.72188 122.425Q69.72188 122.51875 69.72188 122.70625L65.08125 122.70625Q65.14375 123.7375 65.65938 124.28438Q66.175 124.81563 66.95625 124.81563Q67.53438 124.81563 67.94063 124.51875Q68.3625 124.20625 68.59688 123.55ZM65.14375 121.84688L68.6125 121.84688Q68.55 121.05 68.22188 120.65938Q67.70625 120.05 66.90938 120.05Q66.175 120.05 65.675 120.53438Q65.19063 121.01875 65.14375 121.84688ZM71.33125 125.55L71.33125 119.33125L72.28438 119.33125L72.28438 120.26875Q72.64375 119.6125 72.94063 119.40938Q73.25313 119.19063 73.62813 119.19063Q74.15938 119.19063 74.70625 119.51875L74.34688 120.50313Q73.95625 120.26875 73.58125 120.26875Q73.22188 120.26875 72.94063 120.4875Q72.675 120.69063 72.56563 121.06563Q72.37813 121.62813 72.37813 122.28438L72.37813 125.55L71.33125 125.55Z" fill-rule="nonzero"/><path fill="#46bdc6" d="M18.55 140.55C18.55 139.99771 18.997715 139.55 19.55 139.55L29.55 139.55C30.102285 139.55 30.55 139.99771 30.55 140.55L30.55 150.55C30.55 151.10228 30.102285 151.55 29.55 151.55L19.55 151.55C18.997715 151.55 18.55 151.10228 18.55 150.55Z" fill-rule="nonzero"/><path fill="#1a1a1a" d="M39.534374 149.55L39.534374 140.95625L45.33125 140.95625L45.33125 141.97188L40.675 141.97188L40.675 144.62813L44.70625 144.62813L44.70625 145.64375L40.675 145.64375L40.675 149.55L39.534374 149.55ZM50.409374 148.78438Q49.815624 149.28438 49.26875 149.4875Q48.7375 149.69063 48.1125 149.69063Q47.08125 149.69063 46.534374 149.19063Q45.9875 148.69063 45.9875 147.90938Q45.9875 147.45625 46.190624 147.08125Q46.39375 146.69063 46.7375 146.47188Q47.08125 146.2375 47.503124 146.12813Q47.8 146.03438 48.440624 145.95625Q49.70625 145.81563 50.315624 145.59688Q50.315624 145.37813 50.315624 145.33125Q50.315624 144.675 50.01875 144.40938Q49.6125 144.06563 48.815624 144.06563Q48.08125 144.06563 47.721874 144.33125Q47.3625 144.58125 47.190624 145.2375L46.159374 145.09688Q46.3 144.44063 46.628124 144.03438Q46.95625 143.62813 47.565624 143.40938Q48.175 143.19063 48.971874 143.19063Q49.76875 143.19063 50.26875 143.37813Q50.76875 143.56563 51.003124 143.84688Q51.2375 144.12813 51.33125 144.56563Q51.378124 144.83125 51.378124 145.53438L51.378124 146.94063Q51.378124 148.40938 51.440624 148.8Q51.51875 149.19063 51.721874 149.55L50.6125 149.55Q50.45625 149.22188 50.409374 148.78438ZM50.315624 146.425Q49.7375 146.65938 48.596874 146.83125Q47.940624 146.925 47.675 147.05Q47.409374 147.15938 47.253124 147.37813Q47.1125 147.59688 47.1125 147.87813Q47.1125 148.3 47.425 148.58125Q47.753124 148.8625 48.3625 148.8625Q48.971874 148.8625 49.440624 148.59688Q49.925 148.33125 50.14375 147.8625Q50.315624 147.50313 50.315624 146.81563L50.315624 146.425ZM57.409374 147.26875L58.440624 147.40938Q58.26875 148.47188 57.565624 149.08125Q56.8625 149.69063 55.846874 149.69063Q54.565624 149.69063 53.784374 148.8625Q53.01875 148.01875 53.01875 146.45625Q53.01875 145.45625 53.346874 144.70625Q53.690624 143.94063 54.3625 143.56563Q55.05 143.19063 55.8625 143.19063Q56.8625 143.19063 57.503124 143.70625Q58.159374 144.20625 58.346874 145.15938L57.315624 145.31563Q57.175 144.69063 56.8 144.37813Q56.425 144.05 55.89375 144.05Q55.096874 144.05 54.596874 144.62813Q54.096874 145.19063 54.096874 146.425Q54.096874 147.69063 54.58125 148.25313Q55.065624 148.81563 55.83125 148.81563Q56.45625 148.81563 56.8625 148.44063Q57.284374 148.06563 57.409374 147.26875ZM63.596874 147.55L64.69063 147.675Q64.44063 148.62813 63.7375 149.15938Q63.034374 149.69063 61.95625 149.69063Q60.596874 149.69063 59.784374 148.84688Q58.9875 148.00313 58.9875 146.4875Q58.9875 144.925 59.8 144.06563Q60.6125 143.19063 61.89375 143.19063Q63.14375 143.19063 63.925 144.03438Q64.72188 144.87813 64.72188 146.425Q64.72188 146.51875 64.72188 146.70625L60.08125 146.70625Q60.14375 147.7375 60.659374 148.28438Q61.175 148.81563 61.95625 148.81563Q62.534374 148.81563 62.940624 148.51875Q63.3625 148.20625 63.596874 147.55ZM60.14375 145.84688L63.6125 145.84688Q63.55 145.05 63.221874 144.65938Q62.70625 144.05 61.909374 144.05Q61.175 144.05 60.675 144.53438Q60.190624 145.01875 60.14375 145.84688ZM67.31563 149.55L66.33125 149.55L66.33125 140.95625L67.39375 140.95625L67.39375 144.01875Q68.06563 143.19063 69.09688 143.19063Q69.675 143.19063 70.175 143.425Q70.69063 143.64375 71.01875 144.06563Q71.3625 144.4875 71.55 145.08125Q71.7375 145.675 71.7375 146.34688Q71.7375 147.94063 70.94063 148.81563Q70.14375 149.69063 69.05 149.69063Q67.94063 149.69063 67.31563 148.76875L67.31563 149.55ZM67.3 146.39375Q67.3 147.50313 67.6125 148.00313Q68.1125 148.81563 68.95625 148.81563Q69.64375 148.81563 70.14375 148.22188Q70.65938 147.62813 70.65938 146.425Q70.65938 145.20625 70.175 144.62813Q69.69063 144.05 69.00313 144.05Q68.31563 144.05 67.8 144.65938Q67.3 145.25313 67.3 146.39375ZM72.95625 146.44063Q72.95625 144.70625 73.90938 143.87813Q74.70625 143.19063 75.8625 143.19063Q77.14375 143.19063 77.95625 144.03438Q78.78438 144.8625 78.78438 146.34688Q78.78438 147.55 78.425 148.2375Q78.06563 148.925 77.3625 149.31563Q76.675 149.69063 75.8625 149.69063Q74.56563 149.69063 73.75313 148.8625Q72.95625 148.01875 72.95625 146.44063ZM74.03438 146.44063Q74.03438 147.62813 74.55 148.22188Q75.08125 148.81563 75.8625 148.81563Q76.65938 148.81563 77.175 148.22188Q77.69063 147.62813 77.69063 146.40938Q77.69063 145.25313 77.15938 144.65938Q76.64375 144.06563 75.8625 144.06563Q75.08125 144.06563 74.55 144.65938Q74.03438 145.2375 74.03438 146.44063ZM79.95625 146.44063Q79.95625 144.70625 80.90938 143.87813Q81.70625 143.19063 82.8625 143.19063Q84.14375 143.19063 84.95625 144.03438Q85.78438 144.8625 85.78438 146.34688Q85.78438 147.55 85.425 148.2375Q85.06563 148.925 84.3625 149.31563Q83.675 149.69063 82.8625 149.69063Q81.56563 149.69063 80.75313 148.8625Q79.95625 148.01875 79.95625 146.44063ZM81.03438 146.44063Q81.03438 147.62813 81.55 148.22188Q82.08125 148.81563 82.8625 148.81563Q83.65938 148.81563 84.175 148.22188Q84.69063 147.62813 84.69063 146.40938Q84.69063 145.25313 84.15938 144.65938Q83.64375 144.06563 82.8625 144.06563Q82.08125 144.06563 81.55 144.65938Q81.03438 145.2375 81.03438 146.44063ZM87.34688 149.55L87.34688 140.95625L88.40938 140.95625L88.40938 145.8625L90.89375 143.33125L92.26875 143.33125L89.87813 145.62813L92.50313 149.55L91.20625 149.55L89.14375 146.3625L88.40938 147.08125L88.40938 149.55L87.34688 149.55Z" fill-rule="nonzero"/><path fill="#7baaf7" d="M18.55 164.55C18.55 163.99771 18.997715 163.55 19.55 163.55L29.55 163.55C30.102285 163.55 30.55 163.99771 30.55 164.55L30.55 174.55C30.55 175.10228 30.102285 175.55 29.55 175.55L19.55 175.55C18.997715 175.55 18.55 175.10228 18.55 174.55Z" fill-rule="nonzero"/><path fill="#1a1a1a" d="M39.440624 173.55L39.440624 164.95625L41.159374 164.95625L43.190624 171.03438Q43.471874 171.89375 43.596874 172.31563Q43.7375 171.84688 44.05 170.94063L46.1125 164.95625L47.64375 164.95625L47.64375 173.55L46.55 173.55L46.55 166.3625L44.05 173.55L43.01875 173.55L40.534374 166.2375L40.534374 173.55L39.440624 173.55ZM53.596874 171.55L54.690624 171.675Q54.440624 172.62813 53.7375 173.15938Q53.034374 173.69063 51.95625 173.69063Q50.596874 173.69063 49.784374 172.84688Q48.9875 172.00313 48.9875 170.4875Q48.9875 168.925 49.8 168.06563Q50.6125 167.19063 51.89375 167.19063Q53.14375 167.19063 53.925 168.03438Q54.721874 168.87813 54.721874 170.425Q54.721874 170.51875 54.721874 170.70625L50.08125 170.70625Q50.14375 171.7375 50.659374 172.28438Q51.175 172.81563 51.95625 172.81563Q52.534374 172.81563 52.940624 172.51875Q53.3625 172.20625 53.596874 171.55ZM50.14375 169.84688L53.6125 169.84688Q53.55 169.05 53.221874 168.65938Q52.70625 168.05 51.909374 168.05Q51.175 168.05 50.675 168.53438Q50.190624 169.01875 50.14375 169.84688ZM60.378124 173.55L60.378124 172.76875Q59.784374 173.69063 58.64375 173.69063Q57.89375 173.69063 57.26875 173.28438Q56.64375 172.8625 56.3 172.12813Q55.95625 171.39375 55.95625 170.44063Q55.95625 169.51875 56.26875 168.75313Q56.58125 167.9875 57.20625 167.59688Q57.83125 167.19063 58.596874 167.19063Q59.159374 167.19063 59.596874 167.425Q60.034374 167.65938 60.315624 168.03438L60.315624 164.95625L61.3625 164.95625L61.3625 173.55L60.378124 173.55ZM57.05 170.44063Q57.05 171.64375 57.55 172.2375Q58.05 172.81563 58.7375 172.81563Q59.425 172.81563 59.909374 172.25313Q60.39375 171.69063 60.39375 170.53438Q60.39375 169.25313 59.89375 168.65938Q59.409374 168.06563 58.690624 168.06563Q57.9875 168.06563 57.51875 168.64375Q57.05 169.20625 57.05 170.44063ZM63.346874 166.175L63.346874 164.95625L64.40938 164.95625L64.40938 166.175L63.346874 166.175ZM63.346874 173.55L63.346874 167.33125L64.40938 167.33125L64.40938 173.55L63.346874 173.55ZM70.425 173.55L70.425 172.62813Q69.69063 173.69063 68.44063 173.69063Q67.89375 173.69063 67.40938 173.4875Q66.94063 173.26875 66.70625 172.95625Q66.47188 172.62813 66.37813 172.15938Q66.31563 171.8625 66.31563 171.175L66.31563 167.33125L67.37813 167.33125L67.37813 170.78438Q67.37813 171.59688 67.44063 171.89375Q67.53438 172.3 67.84688 172.55Q68.175 172.78438 68.65938 172.78438Q69.12813 172.78438 69.53438 172.55Q69.95625 172.3 70.12813 171.87813Q70.31563 171.45625 70.31563 170.65938L70.31563 167.33125L71.3625 167.33125L71.3625 173.55L70.425 173.55ZM73.34688 173.55L73.34688 167.33125L74.28438 167.33125L74.28438 168.20625Q74.58125 167.7375 75.06563 167.47188Q75.55 167.19063 76.175 167.19063Q76.8625 167.19063 77.3 167.47188Q77.75313 167.75313 77.925 168.26875Q78.675 167.19063 79.84688 167.19063Q80.78438 167.19063 81.26875 167.70625Q81.76875 168.20625 81.76875 169.28438L81.76875 173.55L80.72188 173.55L80.72188 169.62813Q80.72188 169.00313 80.6125 168.72188Q80.51875 168.44063 80.25313 168.26875Q79.9875 168.09688 79.6125 168.09688Q78.95625 168.09688 78.51875 168.53438Q78.09688 168.97188 78.09688 169.94063L78.09688 173.55L77.03438 173.55L77.03438 169.50313Q77.03438 168.8 76.76875 168.45625Q76.51875 168.09688 75.94063 168.09688Q75.4875 168.09688 75.1125 168.33125Q74.7375 168.56563 74.56563 169.01875Q74.39375 169.47188 74.39375 170.31563L74.39375 173.55L73.34688 173.55Z" fill-rule="nonzero"/><path fill="#f07b72" d="M18.55 188.55C18.55 187.99771 18.997715 187.55 19.55 187.55L29.55 187.55C30.102285 187.55 30.55 187.99771 30.55 188.55L30.55 198.55C30.55 199.10228 30.102285 199.55 29.55 199.55L19.55 199.55C18.997715 199.55 18.55 199.10228 18.55 198.55Z" fill-rule="nonzero"/><path fill="#1a1a1a" d="M40.971874 197.55L38.690624 188.95625L39.8625 188.95625L41.175 194.59688Q41.378124 195.47188 41.534374 196.34688Q41.8625 194.97188 41.925 194.75313L43.55 188.95625L44.925 188.95625L46.159374 193.3Q46.6125 194.925 46.83125 196.34688Q46.9875 195.53438 47.253124 194.47188L48.596874 188.95625L49.7375 188.95625L47.39375 197.55L46.284374 197.55L44.4875 191.00313Q44.253124 190.19063 44.20625 190.00313Q44.08125 190.58125 43.95625 191.00313L42.14375 197.55L40.971874 197.55ZM50.346874 190.175L50.346874 188.95625L51.409374 188.95625L51.409374 190.175L50.346874 190.175ZM50.346874 197.55L50.346874 191.33125L51.409374 191.33125L51.409374 197.55L50.346874 197.55ZM52.64375 197.55L54.909374 194.31563L52.815624 191.33125L54.128124 191.33125L55.08125 192.78438Q55.346874 193.20625 55.51875 193.4875Q55.76875 193.09688 55.9875 192.8L57.034374 191.33125L58.3 191.33125L56.14375 194.25313L58.45625 197.55L57.175 197.55L55.89375 195.6125L55.55 195.09688L53.909374 197.55L52.64375 197.55Z" fill-rule="nonzero"/><path fill="#fcd04f" d="M18.55 212.55C18.55 211.99771 18.997715 211.55 19.55 211.55L29.55 211.55C30.102285 211.55 30.55 211.99771 30.55 212.55L30.55 222.55C30.55 223.10228 30.102285 223.55 29.55 223.55L19.55 223.55C18.997715 223.55 18.55 223.10228 18.55 222.55Z" fill-rule="nonzero"/><path fill="#1a1a1a" d="M43.503124 218.175L43.503124 217.175L47.128124 217.15938L47.128124 220.34688Q46.3 221.01875 45.409374 221.3625Q44.51875 221.69063 43.58125 221.69063Q42.315624 221.69063 41.26875 221.15938Q40.2375 220.6125 39.70625 219.59688Q39.190624 218.56563 39.190624 217.3Q39.190624 216.03438 39.70625 214.95625Q40.2375 213.8625 41.221874 213.34688Q42.20625 212.81563 43.4875 212.81563Q44.425 212.81563 45.175 213.1125Q45.925 213.40938 46.346874 213.95625Q46.784374 214.4875 47.003124 215.3625L45.9875 215.64375Q45.784374 214.9875 45.4875 214.6125Q45.20625 214.2375 44.675 214.01875Q44.14375 213.78438 43.503124 213.78438Q42.721874 213.78438 42.14375 214.01875Q41.58125 214.25313 41.221874 214.64375Q40.878124 215.03438 40.690624 215.50313Q40.3625 216.3 40.3625 217.22188Q40.3625 218.37813 40.753124 219.15938Q41.159374 219.925 41.909374 220.3Q42.659374 220.675 43.51875 220.675Q44.253124 220.675 44.95625 220.39375Q45.659374 220.09688 46.01875 219.78438L46.01875 218.175L43.503124 218.175ZM47.95625 218.44063Q47.95625 216.70625 48.909374 215.87813Q49.70625 215.19063 50.8625 215.19063Q52.14375 215.19063 52.95625 216.03438Q53.784374 216.8625 53.784374 218.34688Q53.784374 219.55 53.425 220.2375Q53.065624 220.925 52.3625 221.31563Q51.675 221.69063 50.8625 221.69063Q49.565624 221.69063 48.753124 220.8625Q47.95625 220.01875 47.95625 218.44063ZM49.034374 218.44063Q49.034374 219.62813 49.55 220.22188Q50.08125 220.81563 50.8625 220.81563Q51.659374 220.81563 52.175 220.22188Q52.690624 219.62813 52.690624 218.40938Q52.690624 217.25313 52.159374 216.65938Q51.64375 216.06563 50.8625 216.06563Q50.08125 216.06563 49.55 216.65938Q49.034374 217.2375 49.034374 218.44063ZM54.95625 218.44063Q54.95625 216.70625 55.909374 215.87813Q56.70625 215.19063 57.8625 215.19063Q59.14375 215.19063 59.95625 216.03438Q60.784374 216.8625 60.784374 218.34688Q60.784374 219.55 60.425 220.2375Q60.065624 220.925 59.3625 221.31563Q58.675 221.69063 57.8625 221.69063Q56.565624 221.69063 55.753124 220.8625Q54.95625 220.01875 54.95625 218.44063ZM56.034374 218.44063Q56.034374 219.62813 56.55 220.22188Q57.08125 220.81563 57.8625 220.81563Q58.659374 220.81563 59.175 220.22188Q59.690624 219.62813 59.690624 218.40938Q59.690624 217.25313 59.159374 216.65938Q58.64375 216.06563 57.8625 216.06563Q57.08125 216.06563 56.55 216.65938Q56.034374 217.2375 56.034374 218.44063ZM62.14375 222.06563L63.175 222.22188Q63.2375 222.69063 63.534374 222.90938Q63.925 223.20625 64.59688 223.20625Q65.33125 223.20625 65.72188 222.90938Q66.12813 222.6125 66.26875 222.09688Q66.3625 221.76875 66.34688 220.7375Q65.65938 221.55 64.62813 221.55Q63.346874 221.55 62.64375 220.62813Q61.940624 219.69063 61.940624 218.40938Q61.940624 217.51875 62.253124 216.76875Q62.58125 216.00313 63.190624 215.59688Q63.8 215.19063 64.62813 215.19063Q65.7375 215.19063 66.45625 216.08125L66.45625 215.33125L67.425 215.33125L67.425 220.70625Q67.425 222.15938 67.12813 222.76875Q66.83125 223.37813 66.19063 223.72188Q65.55 224.08125 64.6125 224.08125Q63.503124 224.08125 62.815624 223.58125Q62.128124 223.08125 62.14375 222.06563ZM63.01875 218.33125Q63.01875 219.55 63.503124 220.1125Q63.9875 220.675 64.72188 220.675Q65.45625 220.675 65.94063 220.1125Q66.44063 219.55 66.44063 218.3625Q66.44063 217.22188 65.925 216.64375Q65.425 216.06563 64.70625 216.06563Q64.00313 216.06563 63.503124 216.64375Q63.01875 217.20625 63.01875 218.33125ZM69.31563 221.55L69.31563 212.95625L70.37813 212.95625L70.37813 221.55L69.31563 221.55ZM76.59688 219.55L77.69063 219.675Q77.44063 220.62813 76.7375 221.15938Q76.03438 221.69063 74.95625 221.69063Q73.59688 221.69063 72.78438 220.84688Q71.9875 220.00313 71.9875 218.4875Q71.9875 216.925 72.8 216.06563Q73.6125 215.19063 74.89375 215.19063Q76.14375 215.19063 76.925 216.03438Q77.72188 216.87813 77.72188 218.425Q77.72188 218.51875 77.72188 218.70625L73.08125 218.70625Q73.14375 219.7375 73.65938 220.28438Q74.175 220.81563 74.95625 220.81563Q75.53438 220.81563 75.94063 220.51875Q76.3625 220.20625 76.59688 219.55ZM73.14375 217.84688L76.6125 217.84688Q76.55 217.05 76.22188 216.65938Q75.70625 216.05 74.90938 216.05Q74.175 216.05 73.675 216.53438Q73.19063 217.01875 73.14375 217.84688ZM82.47188 221.55L82.47188 212.95625L85.44063 212.95625Q86.44063 212.95625 86.97188 213.08125Q87.70625 213.25313 88.22188 213.69063Q88.90938 214.26875 89.2375 215.175Q89.58125 216.06563 89.58125 217.20625Q89.58125 218.19063 89.34688 218.94063Q89.12813 219.69063 88.76875 220.19063Q88.40938 220.69063 87.97188 220.97188Q87.55 221.25313 86.95625 221.40938Q86.3625 221.55 85.58125 221.55L82.47188 221.55ZM83.6125 220.53438L85.44063 220.53438Q86.3 220.53438 86.78438 220.37813Q87.26875 220.22188 87.55 219.925Q87.95625 219.53438 88.175 218.84688Q88.40938 218.15938 88.40938 217.19063Q88.40938 215.84688 87.95625 215.12813Q87.51875 214.39375 86.89375 214.14375Q86.425 213.97188 85.425 213.97188L83.6125 213.97188L83.6125 220.53438ZM90.95625 218.44063Q90.95625 216.70625 91.90938 215.87813Q92.70625 215.19063 93.8625 215.19063Q95.14375 215.19063 95.95625 216.03438Q96.78438 216.8625 96.78438 218.34688Q96.78438 219.55 96.425 220.2375Q96.06563 220.925 95.3625 221.31563Q94.675 221.69063 93.8625 221.69063Q92.56563 221.69063 91.75313 220.8625Q90.95625 220.01875 90.95625 218.44063ZM92.03438 218.44063Q92.03438 219.62813 92.55 220.22188Q93.08125 220.81563 93.8625 220.81563Q94.65938 220.81563 95.175 220.22188Q95.69063 219.62813 95.69063 218.40938Q95.69063 217.25313 95.15938 216.65938Q94.64375 216.06563 93.8625 216.06563Q93.08125 216.06563 92.55 216.65938Q92.03438 217.2375 92.03438 218.44063ZM102.40938 219.26875L103.44063 219.40938Q103.26875 220.47188 102.56563 221.08125Q101.8625 221.69063 100.84688 221.69063Q99.56563 221.69063 98.78438 220.8625Q98.01875 220.01875 98.01875 218.45625Q98.01875 217.45625 98.34688 216.70625Q98.69063 215.94063 99.3625 215.56563Q100.05 215.19063 100.8625 215.19063Q101.8625 215.19063 102.50313 215.70625Q103.15938 216.20625 103.34688 217.15938L102.31563 217.31563Q102.175 216.69063 101.8 216.37813Q101.425 216.05 100.89375 216.05Q100.09688 216.05 99.59688 216.62813Q99.09688 217.19063 99.09688 218.425Q99.09688 219.69063 99.58125 220.25313Q100.06563 220.81563 100.83125 220.81563Q101.45625 220.81563 101.8625 220.44063Q102.28438 220.06563 102.40938 219.26875ZM103.925 219.69063L104.95625 219.53438Q105.05 220.15938 105.44063 220.4875Q105.84688 220.81563 106.58125 220.81563Q107.3 220.81563 107.64375 220.53438Q108.00313 220.2375 108.00313 219.83125Q108.00313 219.47188 107.69063 219.26875Q107.47188 219.12813 106.6125 218.90938Q105.45625 218.6125 105.00313 218.40938Q104.56563 218.19063 104.33125 217.81563Q104.09688 217.44063 104.09688 216.97188Q104.09688 216.56563 104.28438 216.20625Q104.47188 215.84688 104.8 215.6125Q105.05 215.44063 105.47188 215.31563Q105.89375 215.19063 106.39375 215.19063Q107.1125 215.19063 107.65938 215.40938Q108.22188 215.6125 108.4875 215.97188Q108.75313 216.33125 108.84688 216.925L107.81563 217.06563Q107.75313 216.59688 107.40938 216.33125Q107.08125 216.05 106.45625 216.05Q105.7375 216.05 105.425 216.3Q105.1125 216.53438 105.1125 216.8625Q105.1125 217.06563 105.2375 217.22188Q105.37813 217.39375 105.64375 217.50313Q105.8 217.56563 106.58125 217.76875Q107.70625 218.08125 108.14375 218.26875Q108.58125 218.45625 108.83125 218.81563Q109.08125 219.175 109.08125 219.72188Q109.08125 220.25313 108.76875 220.72188Q108.47188 221.175 107.89375 221.44063Q107.31563 221.69063 106.58125 221.69063Q105.3625 221.69063 104.72188 221.19063Q104.09688 220.675 103.925 219.69063Z" fill-rule="nonzero"/><path fill="#71c287" d="M18.55 236.55C18.55 235.99771 18.997715 235.55 19.55 235.55L29.55 235.55C30.102285 235.55 30.55 235.99771 30.55 236.55L30.55 246.55C30.55 247.10228 30.102285 247.55 29.55 247.55L19.55 247.55C18.997715 247.55 18.55 247.10228 18.55 246.55Z" fill-rule="nonzero"/><path fill="#1a1a1a" d="M39.471874 245.55L39.471874 236.95625L42.440624 236.95625Q43.440624 236.95625 43.971874 237.08125Q44.70625 237.25313 45.221874 237.69063Q45.909374 238.26875 46.2375 239.175Q46.58125 240.06563 46.58125 241.20625Q46.58125 242.19063 46.346874 242.94063Q46.128124 243.69063 45.76875 244.19063Q45.409374 244.69063 44.971874 244.97188Q44.55 245.25313 43.95625 245.40938Q43.3625 245.55 42.58125 245.55L39.471874 245.55ZM40.6125 244.53438L42.440624 244.53438Q43.3 244.53438 43.784374 244.37813Q44.26875 244.22188 44.55 243.925Q44.95625 243.53438 45.175 242.84688Q45.409374 242.15938 45.409374 241.19063Q45.409374 239.84688 44.95625 239.12813Q44.51875 238.39375 43.89375 238.14375Q43.425 237.97188 42.425 237.97188L40.6125 237.97188L40.6125 244.53438ZM48.33125 245.55L48.33125 239.33125L49.284374 239.33125L49.284374 240.26875Q49.64375 239.6125 49.940624 239.40938Q50.253124 239.19063 50.628124 239.19063Q51.159374 239.19063 51.70625 239.51875L51.346874 240.50313Q50.95625 240.26875 50.58125 240.26875Q50.221874 240.26875 49.940624 240.4875Q49.675 240.69063 49.565624 241.06563Q49.378124 241.62813 49.378124 242.28438L49.378124 245.55L48.33125 245.55ZM51.95625 242.44063Q51.95625 240.70625 52.909374 239.87813Q53.70625 239.19063 54.8625 239.19063Q56.14375 239.19063 56.95625 240.03438Q57.784374 240.8625 57.784374 242.34688Q57.784374 243.55 57.425 244.2375Q57.065624 244.925 56.3625 245.31563Q55.675 245.69063 54.8625 245.69063Q53.565624 245.69063 52.753124 244.8625Q51.95625 244.01875 51.95625 242.44063ZM53.034374 242.44063Q53.034374 243.62813 53.55 244.22188Q54.08125 244.81563 54.8625 244.81563Q55.659374 244.81563 56.175 244.22188Q56.690624 243.62813 56.690624 242.40938Q56.690624 241.25313 56.159374 240.65938Q55.64375 240.06563 54.8625 240.06563Q54.08125 240.06563 53.55 240.65938Q53.034374 241.2375 53.034374 242.44063ZM59.346874 247.94063L59.346874 239.33125L60.3 239.33125L60.3 240.12813Q60.64375 239.65938 61.065624 239.425Q61.503124 239.19063 62.1125 239.19063Q62.909374 239.19063 63.51875 239.59688Q64.12813 240.00313 64.425 240.75313Q64.7375 241.50313 64.7375 242.39375Q64.7375 243.34688 64.39375 244.1125Q64.06563 244.87813 63.409374 245.28438Q62.753124 245.69063 62.034374 245.69063Q61.503124 245.69063 61.08125 245.47188Q60.659374 245.2375 60.39375 244.90938L60.39375 247.94063L59.346874 247.94063ZM60.3 242.47188Q60.3 243.675 60.784374 244.25313Q61.26875 244.81563 61.95625 244.81563Q62.659374 244.81563 63.159374 244.22188Q63.659374 243.62813 63.659374 242.37813Q63.659374 241.19063 63.175 240.6125Q62.690624 240.01875 62.003124 240.01875Q61.33125 240.01875 60.815624 240.64375Q60.3 241.26875 60.3 242.47188ZM67.31563 245.55L66.33125 245.55L66.33125 236.95625L67.39375 236.95625L67.39375 240.01875Q68.06563 239.19063 69.09688 239.19063Q69.675 239.19063 70.175 239.425Q70.69063 239.64375 71.01875 240.06563Q71.3625 240.4875 71.55 241.08125Q71.7375 241.675 71.7375 242.34688Q71.7375 243.94063 70.94063 244.81563Q70.14375 245.69063 69.05 245.69063Q67.94063 245.69063 67.31563 244.76875L67.31563 245.55ZM67.3 242.39375Q67.3 243.50313 67.6125 244.00313Q68.1125 244.81563 68.95625 244.81563Q69.64375 244.81563 70.14375 244.22188Q70.65938 243.62813 70.65938 242.425Q70.65938 241.20625 70.175 240.62813Q69.69063 240.05 69.00313 240.05Q68.31563 240.05 67.8 240.65938Q67.3 241.25313 67.3 242.39375ZM72.95625 242.44063Q72.95625 240.70625 73.90938 239.87813Q74.70625 239.19063 75.8625 239.19063Q77.14375 239.19063 77.95625 240.03438Q78.78438 240.8625 78.78438 242.34688Q78.78438 243.55 78.425 244.2375Q78.06563 244.925 77.3625 245.31563Q76.675 245.69063 75.8625 245.69063Q74.56563 245.69063 73.75313 244.8625Q72.95625 244.01875 72.95625 242.44063ZM74.03438 242.44063Q74.03438 243.62813 74.55 244.22188Q75.08125 244.81563 75.8625 244.81563Q76.65938 244.81563 77.175 244.22188Q77.69063 243.62813 77.69063 242.40938Q77.69063 241.25313 77.15938 240.65938Q76.64375 240.06563 75.8625 240.06563Q75.08125 240.06563 74.55 240.65938Q74.03438 241.2375 74.03438 242.44063ZM79.64375 245.55L81.90938 242.31563L79.81563 239.33125L81.12813 239.33125L82.08125 240.78438Q82.34688 241.20625 82.51875 241.4875Q82.76875 241.09688 82.9875 240.8L84.03438 239.33125L85.3 239.33125L83.14375 242.25313L85.45625 245.55L84.175 245.55L82.89375 243.6125L82.55 243.09688L80.90938 245.55L79.64375 245.55ZM89.47188 245.55L89.47188 236.95625L92.72188 236.95625Q93.56563 236.95625 94.01875 237.03438Q94.65938 237.14375 95.08125 237.44063Q95.51875 237.7375 95.76875 238.26875Q96.03438 238.8 96.03438 239.44063Q96.03438 240.53438 95.33125 241.3Q94.64375 242.05 92.81563 242.05L90.6125 242.05L90.6125 245.55L89.47188 245.55ZM90.6125 241.05L92.83125 241.05Q93.94063 241.05 94.39375 240.64375Q94.8625 240.22188 94.8625 239.47188Q94.8625 238.94063 94.58125 238.56563Q94.31563 238.175 93.87813 238.05Q93.58125 237.97188 92.81563 237.97188L90.6125 237.97188L90.6125 241.05ZM101.40938 244.78438Q100.81563 245.28438 100.26875 245.4875Q99.7375 245.69063 99.1125 245.69063Q98.08125 245.69063 97.53438 245.19063Q96.9875 244.69063 96.9875 243.90938Q96.9875 243.45625 97.19063 243.08125Q97.39375 242.69063 97.7375 242.47188Q98.08125 242.2375 98.50313 242.12813Q98.8 242.03438 99.44063 241.95625Q100.70625 241.81563 101.31563 241.59688Q101.31563 241.37813 101.31563 241.33125Q101.31563 240.675 101.01875 240.40938Q100.6125 240.06563 99.81563 240.06563Q99.08125 240.06563 98.72188 240.33125Q98.3625 240.58125 98.19063 241.2375L97.15938 241.09688Q97.3 240.44063 97.62813 240.03438Q97.95625 239.62813 98.56563 239.40938Q99.175 239.19063 99.97188 239.19063Q100.76875 239.19063 101.26875 239.37813Q101.76875 239.56563 102.00313 239.84688Q102.2375 240.12813 102.33125 240.56563Q102.37813 240.83125 102.37813 241.53438L102.37813 242.94063Q102.37813 244.40938 102.44063 244.8Q102.51875 245.19063 102.72188 245.55L101.6125 245.55Q101.45625 245.22188 101.40938 244.78438ZM101.31563 242.425Q100.7375 242.65938 99.59688 242.83125Q98.94063 242.925 98.675 243.05Q98.40938 243.15938 98.25313 243.37813Q98.1125 243.59688 98.1125 243.87813Q98.1125 244.3 98.425 244.58125Q98.75313 244.8625 99.3625 244.8625Q99.97188 244.8625 100.44063 244.59688Q100.925 244.33125 101.14375 243.8625Q101.31563 243.50313 101.31563 242.81563L101.31563 242.425ZM104.34688 247.94063L104.34688 239.33125L105.3 239.33125L105.3 240.12813Q105.64375 239.65938 106.06563 239.425Q106.50313 239.19063 107.1125 239.19063Q107.90938 239.19063 108.51875 239.59688Q109.12813 240.00313 109.425 240.75313Q109.7375 241.50313 109.7375 242.39375Q109.7375 243.34688 109.39375 244.1125Q109.06563 244.87813 108.40938 245.28438Q107.75313 245.69063 107.03438 245.69063Q106.50313 245.69063 106.08125 245.47188Q105.65938 245.2375 105.39375 244.90938L105.39375 247.94063L104.34688 247.94063ZM105.3 242.47188Q105.3 243.675 105.78438 244.25313Q106.26875 244.81563 106.95625 244.81563Q107.65938 244.81563 108.15938 244.22188Q108.65938 243.62813 108.65938 242.37813Q108.65938 241.19063 108.175 240.6125Q107.69063 240.01875 107.00313 240.01875Q106.33125 240.01875 105.81563 240.64375Q105.3 241.26875 105.3 242.47188ZM115.59688 243.55L116.69063 243.675Q116.44063 244.62813 115.7375 245.15938Q115.03438 245.69063 113.95625 245.69063Q112.59688 245.69063 111.78438 244.84688Q110.9875 244.00313 110.9875 242.4875Q110.9875 240.925 111.8 240.06563Q112.6125 239.19063 113.89375 239.19063Q115.14375 239.19063 115.925 240.03438Q116.72188 240.87813 116.72188 242.425Q116.72188 242.51875 116.72188 242.70625L112.08125 242.70625Q112.14375 243.7375 112.65938 244.28438Q113.175 244.81563 113.95625 244.81563Q114.53438 244.81563 114.94063 244.51875Q115.3625 244.20625 115.59688 243.55ZM112.14375 241.84688L115.6125 241.84688Q115.55 241.05 115.22188 240.65938Q114.70625 240.05 113.90938 240.05Q113.175 240.05 112.675 240.53438Q112.19063 241.01875 112.14375 241.84688ZM118.33125 245.55L118.33125 239.33125L119.28438 239.33125L119.28438 240.26875Q119.64375 239.6125 119.94063 239.40938Q120.25313 239.19063 120.62813 239.19063Q121.15938 239.19063 121.70625 239.51875L121.34688 240.50313Q120.95625 240.26875 120.58125 240.26875Q120.22188 240.26875 119.94063 240.4875Q119.675 240.69063 119.56563 241.06563Q119.37813 241.62813 119.37813 242.28438L119.37813 245.55L118.33125 245.55Z" fill-rule="nonzero"/><path fill="#ff994d" d="M18.55 260.55C18.55 259.9977 18.997715 259.55 19.55 259.55L29.55 259.55C30.102285 259.55 30.55 259.9977 30.55 260.55L30.55 270.55C30.55 271.1023 30.102285 271.55 29.55 271.55L19.55 271.55C18.997715 271.55 18.55 271.1023 18.55 270.55Z" fill-rule="nonzero"/><path fill="#1a1a1a" d="M40.971874 269.55L38.690624 260.95624L39.8625 260.95624L41.175 266.59686Q41.378124 267.47186 41.534374 268.34686Q41.8625 266.97186 41.925 266.7531L43.55 260.95624L44.925 260.95624L46.159374 265.3Q46.6125 266.925 46.83125 268.34686Q46.9875 267.53436 47.253124 266.47186L48.596874 260.95624L49.7375 260.95624L47.39375 269.55L46.284374 269.55L44.4875 263.0031Q44.253124 262.1906 44.20625 262.0031Q44.08125 262.58124 43.95625 263.0031L42.14375 269.55L40.971874 269.55ZM49.95625 266.4406Q49.95625 264.70624 50.909374 263.8781Q51.70625 263.1906 52.8625 263.1906Q54.14375 263.1906 54.95625 264.03436Q55.784374 264.8625 55.784374 266.34686Q55.784374 267.55 55.425 268.2375Q55.065624 268.925 54.3625 269.3156Q53.675 269.6906 52.8625 269.6906Q51.565624 269.6906 50.753124 268.8625Q49.95625 268.01874 49.95625 266.4406ZM51.034374 266.4406Q51.034374 267.6281 51.55 268.22186Q52.08125 268.8156 52.8625 268.8156Q53.659374 268.8156 54.175 268.22186Q54.690624 267.6281 54.690624 266.40936Q54.690624 265.2531 54.159374 264.65936Q53.64375 264.0656 52.8625 264.0656Q52.08125 264.0656 51.55 264.65936Q51.034374 265.2375 51.034374 266.4406ZM57.33125 269.55L57.33125 263.33124L58.284374 263.33124L58.284374 264.26874Q58.64375 263.6125 58.940624 263.40936Q59.253124 263.1906 59.628124 263.1906Q60.159374 263.1906 60.70625 263.51874L60.346874 264.5031Q59.95625 264.26874 59.58125 264.26874Q59.221874 264.26874 58.940624 264.4875Q58.675 264.6906 58.565624 265.0656Q58.378124 265.6281 58.378124 266.28436L58.378124 269.55L57.33125 269.55ZM65.37813 269.55L65.37813 268.76874Q64.78438 269.6906 63.64375 269.6906Q62.89375 269.6906 62.26875 269.28436Q61.64375 268.8625 61.3 268.1281Q60.95625 267.39374 60.95625 266.4406Q60.95625 265.51874 61.26875 264.7531Q61.58125 263.9875 62.20625 263.59686Q62.83125 263.1906 63.596874 263.1906Q64.15938 263.1906 64.59688 263.425Q65.03438 263.65936 65.31563 264.03436L65.31563 260.95624L66.3625 260.95624L66.3625 269.55L65.37813 269.55ZM62.05 266.4406Q62.05 267.64374 62.55 268.2375Q63.05 268.8156 63.7375 268.8156Q64.425 268.8156 64.90938 268.2531Q65.39375 267.6906 65.39375 266.53436Q65.39375 265.2531 64.89375 264.65936Q64.40938 264.0656 63.690624 264.0656Q62.9875 264.0656 62.51875 264.64374Q62.05 265.20624 62.05 266.4406ZM68.34688 271.9406L68.34688 263.33124L69.3 263.33124L69.3 264.1281Q69.64375 263.65936 70.06563 263.425Q70.50313 263.1906 71.1125 263.1906Q71.90938 263.1906 72.51875 263.59686Q73.12813 264.0031 73.425 264.7531Q73.7375 265.5031 73.7375 266.39374Q73.7375 267.34686 73.39375 268.1125Q73.06563 268.8781 72.40938 269.28436Q71.75313 269.6906 71.03438 269.6906Q70.50313 269.6906 70.08125 269.47186Q69.65938 269.2375 69.39375 268.90936L69.39375 271.9406L68.34688 271.9406ZM69.3 266.47186Q69.3 267.675 69.78438 268.2531Q70.26875 268.8156 70.95625 268.8156Q71.65938 268.8156 72.15938 268.22186Q72.65938 267.6281 72.65938 266.3781Q72.65938 265.1906 72.175 264.6125Q71.69063 264.01874 71.00313 264.01874Q70.33125 264.01874 69.81563 264.64374Q69.3 265.26874 69.3 266.47186ZM75.33125 269.55L75.33125 263.33124L76.28438 263.33124L76.28438 264.26874Q76.64375 263.6125 76.94063 263.40936Q77.25313 263.1906 77.62813 263.1906Q78.15938 263.1906 78.70625 263.51874L78.34688 264.5031Q77.95625 264.26874 77.58125 264.26874Q77.22188 264.26874 76.94063 264.4875Q76.675 264.6906 76.56563 265.0656Q76.37813 265.6281 76.37813 266.28436L76.37813 269.55L75.33125 269.55ZM83.59688 267.55L84.69063 267.675Q84.44063 268.6281 83.7375 269.15936Q83.03438 269.6906 81.95625 269.6906Q80.59688 269.6906 79.78438 268.84686Q78.9875 268.0031 78.9875 266.4875Q78.9875 264.925 79.8 264.0656Q80.6125 263.1906 81.89375 263.1906Q83.14375 263.1906 83.925 264.03436Q84.72188 264.8781 84.72188 266.425Q84.72188 266.51874 84.72188 266.70624L80.08125 266.70624Q80.14375 267.7375 80.65938 268.28436Q81.175 268.8156 81.95625 268.8156Q82.53438 268.8156 82.94063 268.51874Q83.3625 268.20624 83.59688 267.55ZM80.14375 265.84686L83.6125 265.84686Q83.55 265.05 83.22188 264.65936Q82.70625 264.05 81.90938 264.05Q81.175 264.05 80.675 264.53436Q80.19063 265.01874 80.14375 265.84686ZM85.925 267.6906L86.95625 267.53436Q87.05 268.15936 87.44063 268.4875Q87.84688 268.8156 88.58125 268.8156Q89.3 268.8156 89.64375 268.53436Q90.00313 268.2375 90.00313 267.83124Q90.00313 267.47186 89.69063 267.26874Q89.47188 267.1281 88.6125 266.90936Q87.45625 266.6125 87.00313 266.40936Q86.56563 266.1906 86.33125 265.8156Q86.09688 265.4406 86.09688 264.97186Q86.09688 264.5656 86.28438 264.20624Q86.47188 263.84686 86.8 263.6125Q87.05 263.4406 87.47188 263.3156Q87.89375 263.1906 88.39375 263.1906Q89.1125 263.1906 89.65938 263.40936Q90.22188 263.6125 90.4875 263.97186Q90.75313 264.33124 90.84688 264.925L89.81563 265.0656Q89.75313 264.59686 89.40938 264.33124Q89.08125 264.05 88.45625 264.05Q87.7375 264.05 87.425 264.3Q87.1125 264.53436 87.1125 264.8625Q87.1125 265.0656 87.2375 265.22186Q87.37813 265.39374 87.64375 265.5031Q87.8 265.5656 88.58125 265.76874Q89.70625 266.08124 90.14375 266.26874Q90.58125 266.45624 90.83125 266.8156Q91.08125 267.175 91.08125 267.72186Q91.08125 268.2531 90.76875 268.72186Q90.47188 269.175 89.89375 269.4406Q89.31563 269.6906 88.58125 269.6906Q87.3625 269.6906 86.72188 269.1906Q86.09688 268.675 85.925 267.6906ZM91.925 267.6906L92.95625 267.53436Q93.05 268.15936 93.44063 268.4875Q93.84688 268.8156 94.58125 268.8156Q95.3 268.8156 95.64375 268.53436Q96.00313 268.2375 96.00313 267.83124Q96.00313 267.47186 95.69063 267.26874Q95.47188 267.1281 94.6125 266.90936Q93.45625 266.6125 93.00313 266.40936Q92.56563 266.1906 92.33125 265.8156Q92.09688 265.4406 92.09688 264.97186Q92.09688 264.5656 92.28438 264.20624Q92.47188 263.84686 92.8 263.6125Q93.05 263.4406 93.47188 263.3156Q93.89375 263.1906 94.39375 263.1906Q95.1125 263.1906 95.65938 263.40936Q96.22188 263.6125 96.4875 263.97186Q96.75313 264.33124 96.84688 264.925L95.81563 265.0656Q95.75313 264.59686 95.40938 264.33124Q95.08125 264.05 94.45625 264.05Q93.7375 264.05 93.425 264.3Q93.1125 264.53436 93.1125 264.8625Q93.1125 265.0656 93.2375 265.22186Q93.37813 265.39374 93.64375 265.5031Q93.8 265.5656 94.58125 265.76874Q95.70625 266.08124 96.14375 266.26874Q96.58125 266.45624 96.83125 266.8156Q97.08125 267.175 97.08125 267.72186Q97.08125 268.2531 96.76875 268.72186Q96.47188 269.175 95.89375 269.4406Q95.31563 269.6906 94.58125 269.6906Q93.3625 269.6906 92.72188 269.1906Q92.09688 268.675 91.925 267.6906Z" fill-rule="nonzero"/><path fill="#7ed1d7" d="M18.55 284.55C18.55 283.9977 18.997715 283.55 19.55 283.55L29.55 283.55C30.102285 283.55 30.55 283.9977 30.55 284.55L30.55 294.55C30.55 295.1023 30.102285 295.55 29.55 295.55L19.55 295.55C18.997715 295.55 18.55 295.1023 18.55 294.55Z" fill-rule="nonzero"/><path fill="#1a1a1a" d="M40.971874 293.55L38.690624 284.95624L39.8625 284.95624L41.175 290.59686Q41.378124 291.47186 41.534374 292.34686Q41.8625 290.97186 41.925 290.7531L43.55 284.95624L44.925 284.95624L46.159374 289.3Q46.6125 290.925 46.83125 292.34686Q46.9875 291.53436 47.253124 290.47186L48.596874 284.95624L49.7375 284.95624L47.39375 293.55L46.284374 293.55L44.4875 287.0031Q44.253124 286.1906 44.20625 286.0031Q44.08125 286.58124 43.95625 287.0031L42.14375 293.55L40.971874 293.55ZM54.596874 291.55L55.690624 291.675Q55.440624 292.6281 54.7375 293.15936Q54.034374 293.6906 52.95625 293.6906Q51.596874 293.6906 50.784374 292.84686Q49.9875 292.0031 49.9875 290.4875Q49.9875 288.925 50.8 288.0656Q51.6125 287.1906 52.89375 287.1906Q54.14375 287.1906 54.925 288.03436Q55.721874 288.8781 55.721874 290.425Q55.721874 290.51874 55.721874 290.70624L51.08125 290.70624Q51.14375 291.7375 51.659374 292.28436Q52.175 292.8156 52.95625 292.8156Q53.534374 292.8156 53.940624 292.51874Q54.3625 292.20624 54.596874 291.55ZM51.14375 289.84686L54.6125 289.84686Q54.55 289.05 54.221874 288.65936Q53.70625 288.05 52.909374 288.05Q52.175 288.05 51.675 288.53436Q51.190624 289.01874 51.14375 289.84686ZM58.315624 293.55L57.33125 293.55L57.33125 284.95624L58.39375 284.95624L58.39375 288.01874Q59.065624 287.1906 60.096874 287.1906Q60.675 287.1906 61.175 287.425Q61.690624 287.64374 62.01875 288.0656Q62.3625 288.4875 62.55 289.08124Q62.7375 289.675 62.7375 290.34686Q62.7375 291.9406 61.940624 292.8156Q61.14375 293.6906 60.05 293.6906Q58.940624 293.6906 58.315624 292.76874L58.315624 293.55ZM58.3 290.39374Q58.3 291.5031 58.6125 292.0031Q59.1125 292.8156 59.95625 292.8156Q60.64375 292.8156 61.14375 292.22186Q61.659374 291.6281 61.659374 290.425Q61.659374 289.20624 61.175 288.6281Q60.690624 288.05 60.003124 288.05Q59.315624 288.05 58.8 288.65936Q58.3 289.2531 58.3 290.39374ZM64.59688 293.55L64.59688 288.14374L63.659374 288.14374L63.659374 287.33124L64.59688 287.33124L64.59688 286.65936Q64.59688 286.03436 64.70625 285.7375Q64.8625 285.3156 65.2375 285.0656Q65.62813 284.8156 66.31563 284.8156Q66.76875 284.8156 67.3 284.925L67.14375 285.83124Q66.81563 285.78436 66.51875 285.78436Q66.03438 285.78436 65.83125 285.9875Q65.64375 286.1906 65.64375 286.7531L65.64375 287.33124L66.8625 287.33124L66.8625 288.14374L65.64375 288.14374L65.64375 293.55L64.59688 293.55ZM67.31563 293.55L67.31563 284.95624L68.37813 284.95624L68.37813 293.55L67.31563 293.55ZM69.95625 290.4406Q69.95625 288.70624 70.90938 287.8781Q71.70625 287.1906 72.8625 287.1906Q74.14375 287.1906 74.95625 288.03436Q75.78438 288.8625 75.78438 290.34686Q75.78438 291.55 75.425 292.2375Q75.06563 292.925 74.3625 293.3156Q73.675 293.6906 72.8625 293.6906Q71.56563 293.6906 70.75313 292.8625Q69.95625 292.01874 69.95625 290.4406ZM71.03438 290.4406Q71.03438 291.6281 71.55 292.22186Q72.08125 292.8156 72.8625 292.8156Q73.65938 292.8156 74.175 292.22186Q74.69063 291.6281 74.69063 290.40936Q74.69063 289.2531 74.15938 288.65936Q73.64375 288.0656 72.8625 288.0656Q72.08125 288.0656 71.55 288.65936Q71.03438 289.2375 71.03438 290.4406ZM78.4875 293.55L76.58125 287.33124L77.675 287.33124L78.65938 290.925L79.03438 292.2531Q79.06563 292.15936 79.3625 290.97186L80.34688 287.33124L81.425 287.33124L82.3625 290.9406L82.675 292.1281L83.03438 290.925L84.09688 287.33124L85.12813 287.33124L83.175 293.55L82.08125 293.55L81.09688 289.8156L80.84688 288.76874L79.59688 293.55L78.4875 293.55Z" fill-rule="nonzero"/></svg>